<svg width="271" height="48" viewBox="0 0 271 48" fill="none" xmlns="http://www.w3.org/2000/svg">
<g clip-path="url(#clip0)">
<path fill-rule="evenodd" clip-rule="evenodd" d="M127.9 10C123.7 10 120.9 11.5 118.9 15C117.4 11.6 114.2 10 110.3 10C106 10 102.8 12.3 102 14.5V10.7L93 12.4V39H102V24.9C102 21.2 102.6 17.7 107.2 17.7C111.2 17.7 111 21.9 111 24V39H120V24C120 20.5 121.2 17.7 125.2 17.7C128.1 17.7 129 19.9 129 22.5V39H138V22.3C138 15.4 135.6 10 127.9 10V10ZM220.2 10L213.6 29L206.4 10H197L208.7 39H217.9L229 10H220.2ZM235.8 20.2C235.952 18.6797 236.678 17.2746 237.83 16.2711C238.982 15.2677 240.473 14.7415 242 14.8C245.2 14.8 247.4 17.8 247.4 20.2H235.8ZM242.8 9C234 9 227 14.9 227 24C227 33.1 234 39 242.8 39C247.4 39 252 37 254.8 33.4L248.7 28.8C247.2 30.8 245.3 32.3 242.4 32.3C240.824 32.322 239.293 31.7796 238.083 30.7709C236.872 29.7622 236.062 28.3537 235.8 26.8H256V24C256 14.9 251 9 242.7 9H242.8ZM267 28.8V0L259 1.7V29.8C259 37.1 264.2 39 267.4 39C268.7 39 270.2 38.7 271 38.1V31.2C269.4 32 267 30.8 267 28.8V28.8ZM184.3 31.6C179.9 31.6 177 28.6 177 24C177 19.4 179.9 16.4 184.3 16.4C188.8 16.4 191.7 19.4 191.7 24C191.7 28.6 188.8 31.6 184.3 31.6ZM155.7 31.6C151.2 31.6 148.3 28.6 148.3 24C148.3 19.4 151.2 16.4 155.7 16.4C160.1 16.4 163 19.4 163 24C163 28.6 160.1 31.6 155.7 31.6ZM184.3 9C177.9 9 172.4 12.2 170 17.6C168.715 14.9281 166.676 12.6903 164.136 11.1622C161.595 9.63418 158.663 8.88259 155.7 9C147 9 140 14.9 140 24C140 33.1 147 39 155.7 39C162.1 39 167.6 35.8 170 30.4C172.4 35.8 177.9 39 184.3 39C193 39 200 33.1 200 24C200 14.9 193 9 184.3 9ZM64.3 27.4L53.5 38.2C53.1828 38.5297 52.8023 38.7919 52.3813 38.9711C51.9603 39.1502 51.5075 39.2426 51.05 39.2426C50.5925 39.2426 50.1397 39.1502 49.7187 38.9711C49.2977 38.7919 48.9172 38.5297 48.6 38.2C48.2703 37.8828 48.0081 37.5023 47.8289 37.0813C47.6498 36.6603 47.5574 36.2075 47.5574 35.75C47.5574 35.2925 47.6498 34.8397 47.8289 34.4187C48.0081 33.9977 48.2703 33.6172 48.6 33.3L53.5 28.5H16.5C14.6 28.5 13.1 27.1 13.1 25.2C13.1 23.3 14.6 22 16.5 22H53.7L48.7 16.7C48.0523 16.0289 47.6904 15.1327 47.6904 14.2C47.6904 13.2673 48.0523 12.3711 48.7 11.7C49.3373 11.0649 50.2003 10.7083 51.1 10.7083C51.9997 10.7083 52.8627 11.0649 53.5 11.7L64.3 22.6C64.9351 23.2373 65.2917 24.1003 65.2917 25C65.2917 25.8997 64.9351 26.7627 64.3 27.4V27.4ZM53.9 2C48.2138 1.99542 42.7275 4.09732 38.5 7.9C35.1988 4.88873 31.092 2.90423 26.6814 2.18899C22.2707 1.47375 17.7472 2.05875 13.6636 3.8725C9.58004 5.68625 6.11318 8.65021 3.68668 12.4022C1.26018 16.1542 -0.0208931 20.5318 7.58021e-06 25C-0.0208931 29.4682 1.26018 33.8458 3.68668 37.5978C6.11318 41.3498 9.58004 44.3137 13.6636 46.1275C17.7472 47.9413 22.2707 48.5263 26.6814 47.811C31.092 47.0958 35.1988 45.1113 38.5 42.1C41.8012 45.1113 45.908 47.0958 50.3186 47.811C54.7293 48.5263 59.2528 47.9413 63.3364 46.1275C67.42 44.3137 70.8868 41.3498 73.3133 37.5978C75.7398 33.8458 77.0209 29.4682 77 25C77 21.9712 76.4018 18.9721 75.2397 16.1751C74.0776 13.3781 72.3745 10.8381 70.2281 8.70109C68.0818 6.56403 65.5345 4.87195 62.7324 3.72199C59.9304 2.57202 56.9288 1.98683 53.9 2V2Z" fill="#25262E"/>
</g>
<defs>
<clipPath id="clip0">
<rect width="271" height="48" fill="white"/>
</clipPath>
</defs>
</svg>
