<svg width="514" height="112" viewBox="0 0 514 112" fill="none" xmlns="http://www.w3.org/2000/svg">
<path d="M183.311 42.4179C187.513 42.4179 195.215 44.1045 195.215 49.7596V53.5296H188.013V51.7438C188.013 49.958 185.312 49.1643 183.311 49.1643C177.61 49.1643 173.609 53.4304 173.609 59.2839C173.609 65.931 178.61 69.3042 183.812 69.3042C189.413 69.3042 193.514 64.9389 193.514 64.9389L196.915 70.594C196.915 70.594 192.014 76.4475 183.111 76.4475C172.308 76.4475 165.407 68.8082 165.407 59.3831C165.407 50.2556 172.008 42.4179 183.311 42.4179Z" fill="#0E95CC"/>
<path d="M201.116 38.7471C201.116 37.755 200.616 37.3581 199.716 37.3581H197.115V30.5125H204.917C207.918 30.5125 209.318 31.8023 209.318 34.8778V67.6176C209.318 68.5106 209.819 69.0066 210.719 69.0066H213.22V75.8522H205.517C202.417 75.8522 201.116 74.5625 201.116 71.4869V38.7471Z" fill="#0E95CC"/>
<path d="M232.125 42.4179C242.127 42.4179 250.129 49.4619 250.129 59.4823C250.129 69.5027 242.127 76.5467 232.125 76.5467C222.122 76.5467 214.22 69.5027 214.22 59.4823C214.12 49.5612 222.122 42.4179 232.125 42.4179ZM232.125 69.6019C237.426 69.6019 241.927 65.5342 241.927 59.4823C241.927 53.5296 237.526 49.3627 232.125 49.3627C226.823 49.3627 222.422 53.5296 222.422 59.4823C222.322 65.5342 226.823 69.6019 232.125 69.6019Z" fill="#0E95CC"/>
<path d="M254.731 51.5454C254.731 50.5533 254.231 50.1564 253.33 50.1564H250.73V43.3108H258.532C261.533 43.3108 262.833 44.6006 262.833 47.5769V62.4586C262.833 66.4271 263.833 69.1058 267.934 69.1058C273.836 69.1058 277.137 63.9468 277.137 58.1926V43.2116H285.339V67.5184C285.339 68.4113 285.839 68.9074 286.739 68.9074H289.34V75.753H281.838C279.037 75.753 277.537 74.4633 277.537 72.0822V71.1892C277.537 70.3956 277.637 69.7011 277.637 69.7011H277.537C276.036 73.0743 271.835 76.4475 266.234 76.4475C259.232 76.4475 254.931 72.9751 254.931 64.046V51.5454H254.731Z" fill="#0E95CC"/>
<path d="M304.944 42.4179C312.046 42.4179 314.447 46.3864 314.447 46.3864H314.547C314.547 46.3864 314.447 45.5927 314.447 44.5013V38.7471C314.447 37.755 313.947 37.3581 313.046 37.3581H310.446V30.5125H318.248C321.249 30.5125 322.649 31.8023 322.649 34.8778V67.6177C322.649 68.5106 323.149 69.0066 324.049 69.0066H326.55V75.8522H319.048C316.047 75.8522 315.047 74.4632 315.047 72.5782V71.3877H314.947C314.947 71.3877 312.246 76.6459 304.744 76.6459C295.842 76.6459 290.14 69.7011 290.14 59.5815C290.04 49.1643 296.342 42.4179 304.944 42.4179ZM314.647 59.3831C314.647 54.3233 312.046 49.3627 306.545 49.3627C302.043 49.3627 298.342 53.0335 298.342 59.4823C298.342 65.6334 301.643 69.7011 306.445 69.7011C310.746 69.7011 314.647 66.6255 314.647 59.3831Z" fill="#0E95CC"/>
<path d="M348.356 55.3154H349.356V55.0178C349.356 50.3548 347.556 48.6683 343.355 48.6683C341.854 48.6683 338.953 49.0651 338.953 50.8509V52.5375H331.351V49.0651C331.351 43.0132 339.954 42.4179 343.355 42.4179C354.257 42.4179 357.458 48.073 357.458 55.3154V67.4192C357.458 68.3121 357.958 68.8082 358.859 68.8082H361.459V75.6538H354.157C351.157 75.6538 349.956 73.9672 349.956 72.0822C349.956 71.2885 350.056 70.6932 350.056 70.6932H349.956C349.956 70.6932 347.456 76.4475 340.054 76.4475C334.252 76.4475 328.851 72.7766 328.851 66.3279C328.851 56.1091 342.954 55.3154 348.356 55.3154ZM342.054 70.1971C346.455 70.1971 349.556 65.6334 349.556 61.665V60.8713H348.056C343.855 60.8713 337.053 61.4665 337.053 66.0303C337.053 68.1137 338.653 70.1971 342.054 70.1971Z" fill="#0E95CC"/>
<path d="M365.26 38.7471C365.26 37.755 364.76 37.3581 363.86 37.3581H361.259V30.5125H369.061C372.062 30.5125 373.463 31.8023 373.463 34.8778V44.3029C373.463 45.8903 373.363 47.0809 373.363 47.0809H373.463C373.463 47.0809 376.363 42.5171 383.265 42.5171C392.168 42.5171 397.769 49.4619 397.769 59.5815C397.769 69.8995 391.368 76.6459 382.765 76.6459C375.963 76.6459 372.963 72.0822 372.963 72.0822H372.863C372.863 72.0822 372.963 72.9751 372.963 74.2648V75.9514H365.26V38.7471ZM381.365 69.7011C385.766 69.7011 389.567 66.0303 389.567 59.5815C389.567 53.4304 386.266 49.3627 381.365 49.3627C377.164 49.3627 373.163 52.4383 373.163 59.6807C373.163 64.7405 375.863 69.7011 381.365 69.7011Z" fill="#0E95CC"/>
<path d="M404.171 51.5454C404.171 50.5533 403.671 50.1564 402.771 50.1564H400.17V43.3108H407.972C410.973 43.3108 412.273 44.6006 412.273 47.6761V67.6177C412.273 68.5106 412.773 69.0066 413.673 69.0066H416.274V75.8522H408.472C405.471 75.8522 404.171 74.5625 404.171 71.4869V51.5454ZM404.571 30.4133H411.673V37.8542H404.571V30.4133Z" fill="#0E95CC"/>
<path d="M421.676 38.7471C421.676 37.755 421.176 37.3581 420.275 37.3581H417.675V30.5125H425.477C428.477 30.5125 429.878 31.8023 429.878 34.8778V67.6176C429.878 68.5106 430.378 69.0066 431.278 69.0066H433.779V75.8522H426.077C422.976 75.8522 421.676 74.5625 421.676 71.4869V38.7471Z" fill="#0E95CC"/>
<path d="M439.58 51.5454C439.58 50.5533 439.08 50.1564 438.18 50.1564H435.579V43.3108H443.381C446.382 43.3108 447.683 44.6006 447.683 47.6761V67.6177C447.683 68.5106 448.183 69.0066 449.083 69.0066H451.684V75.8522H443.882C440.881 75.8522 439.58 74.5625 439.58 71.4869V51.5454ZM439.981 30.4133H447.083V37.8542H439.981V30.4133Z" fill="#0E95CC"/>
<path d="M457.385 49.6604H453.084V43.2116H457.485V34.3818H465.487V43.2116H472.989V49.6604H465.487V62.7563C465.487 68.1137 469.689 68.9074 471.989 68.9074C472.889 68.9074 473.49 68.8082 473.49 68.8082V75.8522C473.49 75.8522 472.489 76.0506 470.989 76.0506C466.388 76.0506 457.385 74.7609 457.385 63.7484V49.6604Z" fill="#0E95CC"/>
<path d="M485.093 82.3009C487.293 82.3009 489.294 81.0112 490.494 78.1341L491.594 75.6538L480.692 51.2477C480.291 50.2556 479.891 50.0572 478.991 50.0572H477.991V43.2116H483.392C485.693 43.2116 486.893 44.0053 487.693 46.2872L494.095 62.5579C494.795 64.2445 495.295 66.9232 495.295 66.9232H495.396C495.396 66.9232 495.896 64.2445 496.496 62.5579L502.097 46.2872C502.898 44.1045 504.198 43.2116 506.499 43.2116H512V50.0572H511C509.999 50.0572 509.499 50.2556 509.199 51.2477L497.396 80.6143C495.095 86.4678 490.494 89.0473 485.593 89.0473C480.391 89.0473 477.291 85.7734 477.291 85.7734L480.492 80.0191C480.391 80.0191 482.392 82.3009 485.093 82.3009Z" fill="#0E95CC"/>
<path fill-rule="evenodd" clip-rule="evenodd" d="M62.5789 24.2622C80.5838 13.0513 107.391 15.0355 120.495 28.7267C120.613 28.8639 120.731 29.0006 120.846 29.1368L91.9868 37.0605L98.0885 43.1124L77.583 62.8555L66.48 51.843L39.2727 78.8285L25.2689 65.435L9.66467 89.9403L26.5692 77.4396L40.573 90.6347L67.2802 65.0381L78.1831 76.0506L106.091 51.0493L112.192 57.002L120.879 29.1748C128.51 38.1837 128.897 45.0982 128.897 45.1958C130.497 57.8949 122.595 66.8239 122.595 66.8239C126.396 65.8318 131.397 59.0854 132.398 55.3154C132.398 55.3154 146.402 57.5973 145.601 75.3561C144.801 93.115 127.897 95 126.496 95H62.5789H24.8688C21.3678 94.9008 13.8658 92.8173 9.66469 90.0394C5.2635 86.7654 1.46248 81.1104 2.06264 72.8758C3.36299 56.1091 19.1673 54.7201 22.2681 54.6209H22.2682C23.0684 54.6209 23.9686 54.6209 24.8688 54.9185C27.5695 55.613 29.27 57.3988 29.27 57.3988C29.27 57.3988 27.7696 54.6209 24.2686 52.8351C23.7862 52.5959 23.2392 52.4207 22.7315 52.2582C22.6075 52.2185 22.4859 52.1796 22.3681 52.1406C22.9683 45.4935 26.8693 34.0841 43.8739 28.9251C54.3767 25.7504 59.8782 29.7188 62.5789 33.1912C64.1794 35.2747 64.7795 37.1597 64.7795 37.1597C65.0796 35.0762 64.0793 32.4967 62.5789 30.5125C61.3786 28.9251 59.8782 27.7346 58.2778 27.2385C59.6782 26.1472 61.0785 25.1551 62.5789 24.2622Z" fill="#0E95CC"/>
</svg>
