<svg width="486" height="96" viewBox="0 0 486 96" fill="none" xmlns="http://www.w3.org/2000/svg">
<path d="M91.8394 1H7.64679C3.97587 1 1 4.05596 1 7.82569V87.4587C1 91.2284 3.97587 94.2844 7.64679 94.2844H91.8394C95.5104 94.2844 98.4862 91.2284 98.4862 87.4587V7.82569C98.4862 4.05596 95.5104 1 91.8394 1Z" fill="#FF6B6B"/>
<path fill-rule="evenodd" clip-rule="evenodd" d="M38.1113 80.9581H33.8647H25.3716V76.4354V72.6291V64.3001V22.6553V14.3263H34.234V23.2106L34.1956 72.0738H38.6652H47.1879C58.0038 72.0738 67.4679 61.4315 67.4679 47.6346C67.4679 34.6206 58.0639 23.2106 47.4475 23.2106L47.4881 27.6527L47.4789 38.758L47.4848 67.6317H38.6652V38.758V27.2764V23.0972V18.6595V14.3263C60.2971 14.3263 76.3303 27.4695 76.3303 47.6422C76.3303 66.6406 64.5035 80.9564 47.5173 80.9564L38.1113 80.9581ZM76.3303 80.9581H63.0367C67.4478 79.2212 70.9355 74.5392 72.2983 72.0738H76.3303V80.9581Z" fill="white"/>
<path d="M138.359 84.4945C143.107 84.4945 146.891 83.619 149.712 81.8679C152.533 80.1168 154.572 77.5475 155.829 74.1602C157.085 70.7728 157.714 66.6103 157.714 61.6728V36.0091C157.714 31.3012 157.085 27.3684 155.829 24.2107C154.572 21.0529 152.477 18.6847 149.544 17.1058C146.612 15.5269 142.632 14.7375 137.605 14.7375H122.858V84.4945H138.359ZM137.688 77.5188H132.326V21.9716H137.437C140.677 21.9716 143.051 22.4883 144.559 23.5217C146.067 24.5552 147.045 26.1914 147.492 28.4305C147.939 30.6697 148.162 33.5977 148.162 37.2148V59.8643C148.162 63.5961 148.008 66.7826 147.701 69.4236C147.394 72.0646 146.514 74.074 145.062 75.452C143.609 76.8299 141.152 77.5188 137.688 77.5188ZM177.204 77.2605C175.808 77.2605 174.747 76.6863 174.02 75.5381C173.294 74.3898 172.931 72.8109 172.931 70.8015C172.931 69.3662 173.197 68.0887 173.727 66.9692C174.258 65.8496 174.984 64.8449 175.906 63.955C176.827 63.0651 177.903 62.2182 179.132 61.4144C180.36 60.6106 181.673 59.8069 183.07 59.0031V73.1267C182.846 73.5286 182.427 74.0597 181.813 74.7199C181.198 75.3802 180.5 75.9687 179.718 76.4854C178.936 77.0021 178.098 77.2605 177.204 77.2605ZM183.485 77.1777L183.585 78.0598C183.695 78.9694 183.845 79.9517 184.033 81.0067C184.285 82.4133 184.494 83.5759 184.662 84.4945H192.873C192.761 83.4037 192.636 82.2411 192.496 81.0067C192.356 79.7723 192.244 78.4374 192.161 77.0021C192.077 75.5668 192.035 74.074 192.035 72.5239V49.7883C192.035 44.6785 191.03 40.7744 189.019 38.076C187.008 35.3775 183.6 34.0283 178.796 34.0283C173.881 34.0283 170.25 35.3345 167.904 37.9468C165.558 40.5591 164.329 44.6211 164.217 50.1327L173.099 50.4772V47.9797C173.099 46.5444 173.266 45.2957 173.602 44.2335C173.937 43.1714 174.481 42.3532 175.235 41.7791C175.989 41.205 176.981 40.9179 178.21 40.9179C179.606 40.9179 180.654 41.248 181.352 41.9083C182.05 42.5685 182.511 43.5589 182.734 44.8794C182.958 46.1999 183.07 47.8649 183.07 49.8744V53.4053C180.5 54.4387 178.056 55.5009 175.738 56.5917C173.42 57.6826 171.381 58.96 169.622 60.424C167.862 61.8881 166.479 63.6822 165.474 65.8065C164.469 67.9308 163.966 70.5431 163.966 73.6434C163.966 75.5955 164.385 77.4471 165.223 79.1982C166.061 80.9493 167.206 82.3846 168.658 83.5042C170.11 84.6237 171.786 85.1835 173.685 85.1835C176.478 85.1835 178.671 84.3366 180.263 82.643C181.855 80.9493 182.93 79.1264 183.489 77.1744L183.485 77.1777ZM208.342 84.4945V44.3627C209.347 43.5015 210.394 42.7695 211.484 42.1667C212.573 41.5638 213.62 41.2624 214.626 41.2624C216.19 41.2624 217.223 41.7504 217.726 42.7264C218.229 43.7025 218.48 45.0804 218.48 46.8602V84.4945H227.445V44.1905C227.445 42.5829 227.236 41.004 226.817 39.4539C226.398 37.9037 225.672 36.6119 224.639 35.5785C223.605 34.545 222.111 34.0283 220.156 34.0283C217.81 34.0283 215.659 34.5738 213.704 35.6646C211.749 36.7555 209.962 38.076 208.342 39.6261V34.7173H199.376V84.4945H208.342ZM248.109 85.1835C251.572 85.1835 254.267 84.5519 256.195 83.2889C258.122 82.0258 259.462 80.1885 260.216 77.7772C260.971 75.3658 261.348 72.4952 261.348 69.1652V65.7204H253.22V69.768C253.22 71.433 253.122 72.9258 252.927 74.2463C252.731 75.5668 252.285 76.5859 251.586 77.3035C250.888 78.0212 249.785 78.38 248.277 78.38C246.266 78.38 244.869 77.6624 244.087 76.227C243.305 74.7917 242.914 71.9497 242.914 67.7012V52.0274C242.914 49.2141 243.04 46.9894 243.291 45.3531C243.543 43.7168 244.059 42.5542 244.841 41.8652C245.623 41.1763 246.74 40.8318 248.193 40.8318C249.533 40.8318 250.567 41.1189 251.293 41.693C252.019 42.2671 252.522 43.1857 252.801 44.4488C253.08 45.7119 253.22 47.4343 253.22 49.616V52.6302H261.348V49.7021C261.348 46.2573 260.985 43.3723 260.258 41.0471C259.532 38.7219 258.206 36.9708 256.278 35.7938C254.351 34.6168 251.628 34.0283 248.109 34.0283C244.199 34.0283 241.224 34.8178 239.186 36.3966C237.147 37.9755 235.764 40.2433 235.038 43.2001C234.312 46.1569 233.949 49.7308 233.949 53.922V65.3759C233.949 69.3374 234.298 72.8109 234.996 75.7964C235.694 78.7819 237.063 81.0928 239.102 82.7291C241.141 84.3653 244.143 85.1835 248.109 85.1835ZM281.425 85.1835C286.396 85.1835 289.915 83.7482 291.982 80.8775C294.049 78.0068 295.082 74.074 295.082 69.0791V67.1844H286.368V70.1986C286.368 71.8636 286.243 73.3133 285.991 74.5477C285.74 75.7821 285.265 76.7294 284.567 77.3896C283.869 78.0499 282.849 78.38 281.508 78.38C280.224 78.38 279.176 78.0786 278.366 77.4758C277.556 76.8729 276.97 75.94 276.607 74.6769C276.244 73.4138 276.062 71.7775 276.062 69.768V59.7781H295.166V55.7305C295.166 51.1949 294.859 47.3051 294.244 44.0613C293.63 40.8174 292.359 38.3343 290.432 36.6119C288.505 34.8895 285.502 34.0283 281.425 34.0283C277.738 34.0283 274.847 34.7747 272.753 36.2674C270.658 37.7602 269.192 39.9706 268.354 42.8987C267.516 45.8267 267.097 49.5012 267.097 53.922V65.2898C267.097 69.5958 267.502 73.2272 268.312 76.184C269.122 79.1407 270.56 81.3799 272.627 82.9013C274.694 84.4228 277.626 85.1835 281.425 85.1835ZM286.368 54.7832H276.062V52.1135C276.062 49.2428 276.202 46.9894 276.481 45.3531C276.76 43.7168 277.277 42.5542 278.031 41.8652C278.785 41.1763 279.889 40.8318 281.341 40.8318C282.849 40.8318 283.952 41.1906 284.651 41.9083C285.349 42.626 285.81 43.6881 286.033 45.0947C286.257 46.5013 286.368 48.2381 286.368 50.305V54.7832ZM329.571 84.4945V77.5188H312.227V14.7375H302.759V84.4945H329.571ZM343.531 27.311V17.6656H334.566V27.311H343.531ZM343.531 84.4945V34.7173H334.566V84.4945H343.531ZM360.843 84.4945V44.3627C361.849 43.5015 362.896 42.7695 363.986 42.1667C365.075 41.5638 366.122 41.2624 367.128 41.2624C368.692 41.2624 369.725 41.7504 370.228 42.7264C370.731 43.7025 370.982 45.0804 370.982 46.8602V84.4945H379.947V44.1905C379.947 42.5829 379.738 41.004 379.319 39.4539C378.9 37.9037 378.174 36.6119 377.14 35.5785C376.107 34.545 374.613 34.0283 372.658 34.0283C370.312 34.0283 368.161 34.5738 366.206 35.6646C364.251 36.7555 362.463 38.076 360.843 39.6261V34.7173H351.878V84.4945H360.843ZM418.625 84.4945L407.565 54.1804L418.961 34.7173H409.576L396.505 56.2472V14.6514H387.54V84.4084H396.505V65.3759L400.611 59.0031L409.66 84.4945H418.625ZM435.435 85.1835C440.406 85.1835 443.925 83.7482 445.992 80.8775C448.059 78.0068 449.092 74.074 449.092 69.0791V67.1844H440.378V70.1986C440.378 71.8636 440.253 73.3133 440.001 74.5477C439.75 75.7821 439.275 76.7294 438.577 77.3896C437.879 78.0499 436.859 78.38 435.519 78.38C434.234 78.38 433.186 78.0786 432.376 77.4758C431.567 76.8729 430.98 75.94 430.617 74.6769C430.254 73.4138 430.072 71.7775 430.072 69.768V59.7781H449.176V55.7305C449.176 51.1949 448.869 47.3051 448.254 44.0613C447.64 40.8174 446.369 38.3343 444.442 36.6119C442.515 34.8895 439.513 34.0283 435.435 34.0283C431.748 34.0283 428.857 34.7747 426.763 36.2674C424.668 37.7602 423.202 39.9706 422.364 42.8987C421.526 45.8267 421.107 49.5012 421.107 53.922V65.2898C421.107 69.5958 421.512 73.2272 422.322 76.184C423.132 79.1407 424.57 81.3799 426.637 82.9013C428.704 84.4228 431.636 85.1835 435.435 85.1835ZM440.378 54.7832H430.072V52.1135C430.072 49.2428 430.212 46.9894 430.491 45.3531C430.771 43.7168 431.287 42.5542 432.041 41.8652C432.795 41.1763 433.899 40.8318 435.351 40.8318C436.859 40.8318 437.962 41.1906 438.661 41.9083C439.359 42.626 439.82 43.6881 440.043 45.0947C440.267 46.5013 440.378 48.2381 440.378 50.305V54.7832ZM467.242 85.1835C468.862 85.1835 470.301 84.8247 471.557 84.107C472.814 83.3893 473.973 82.4564 475.035 81.3081V84.4945H484V14.7375H475.035V37.9037C473.973 36.8129 472.772 35.8943 471.432 35.1479C470.091 34.4015 468.611 34.0283 466.991 34.0283C463.695 34.0283 461.195 35.0044 459.492 36.9564C457.788 38.9085 456.629 41.5064 456.015 44.7502C455.4 47.9941 455.093 51.5106 455.093 55.2999V64.9453C455.093 72.2942 456.098 77.5045 458.109 80.5761C460.12 83.6477 463.165 85.1835 467.242 85.1835ZM469.505 77.9494C467.94 77.9494 466.767 77.4184 465.985 76.3562C465.203 75.2941 464.687 73.83 464.435 71.9641C464.184 70.0982 464.058 68.0169 464.058 65.7204V51.6829C464.058 48.8122 464.421 46.3578 465.148 44.3196C465.874 42.2815 467.27 41.2624 469.337 41.2624C470.454 41.2624 471.488 41.4777 472.437 41.9083C473.387 42.3389 474.253 42.8413 475.035 43.4154V76.0548C474.085 76.6863 473.135 77.16 472.186 77.4758C471.236 77.7915 470.342 77.9494 469.505 77.9494Z" fill="#2F353C"/>
</svg>
