<?xml version="1.0" encoding="utf-8"?>
<!-- Generator: Adobe Illustrator 16.0.0, SVG Export Plug-In . SVG Version: 6.00 Build 0)  -->
<!DOCTYPE svg PUBLIC "-//W3C//DTD SVG 1.1//EN" "http://www.w3.org/Graphics/SVG/1.1/DTD/svg11.dtd">
<svg version="1.1" xmlns="http://www.w3.org/2000/svg" xmlns:xlink="http://www.w3.org/1999/xlink" x="0px" y="0px"
	 width="422.464px" height="205.453px" viewBox="0 0 422.464 205.453" enable-background="new 0 0 422.464 205.453"
	 xml:space="preserve">
<g id="Layer_2">
	<rect x="-46.486" y="-1168.263" fill="#2F3751" width="1282.436" height="2057.181"/>
</g>
<g id="Layer_12">
</g>
<g id="Layer_7_copy">
</g>
<g id="Layer_3">
</g>
<g id="Layer_4">
	<polygon fill="#252B3D" points="1199.731,-444.272 1199.731,-466.272 1159.731,-466.272 1159.731,-471.272 1147.731,-471.272 
		1138.731,-474.272 1138.731,-479.272 1138.731,-486.672 1138.731,-499.272 1137.731,-507.272 1132.731,-514.272 1132.731,-528.252 
		1135.101,-530.772 1138.731,-535.812 1138.731,-540.853 1131.211,-543.373 1128.731,-547.152 1128.731,-554.272 1123.691,-554.272 
		1122.432,-548.192 1118.651,-549.562 1116.132,-558.438 1118.651,-564.765 1117.392,-568.559 1114.871,-571.085 1112.352,-564.789 
		1113.611,-562.271 1114.871,-548.412 1117.392,-542.112 1119.731,-514.393 1114.731,-507.272 1112.731,-486.272 1110.731,-474.272 
		1103.731,-474.272 1103.731,-470.272 1096.731,-470.272 1096.731,-478.272 1084.731,-478.272 1084.731,-493.272 1080.731,-493.272 
		1080.731,-525.272 1075.731,-525.272 1075.731,-539.272 1050.731,-539.272 1050.731,-547.272 984.731,-547.272 984.731,-557.272 
		991.392,-557.272 979.421,-569.243 967.451,-557.272 973.751,-557.272 973.731,-547.272 909.731,-547.272 909.731,-536.272 
		887.731,-536.272 887.731,-554.272 863.731,-554.272 863.731,-568.272 855.731,-568.272 855.731,-589.272 844.731,-615.272 
		834.731,-589.272 834.731,-568.272 807.731,-568.272 807.731,-593.272 794.731,-593.272 794.731,-583.272 784.731,-583.272 
		784.731,-528.272 775.731,-528.272 775.731,-543.272 770.731,-548.272 765.731,-543.272 765.731,-528.272 758.731,-528.272 
		758.731,-571.272 746.731,-571.272 746.731,-590.272 708.731,-590.272 708.731,-577.272 678.731,-577.272 678.731,-602.272 
		674.731,-602.272 674.731,-612.272 664.731,-612.272 664.731,-633.272 655.731,-633.272 655.731,-612.272 650.731,-612.272 
		650.731,-601.272 640.731,-601.272 640.731,-576.272 635.731,-576.272 635.731,-457.692 620.651,-475.333 625.731,-477.853 
		625.731,-480.272 619.562,-482.893 617.106,-489.192 609.731,-508.272 612.731,-512.272 608.731,-515.272 600.731,-599.272 
		602.731,-599.272 598.731,-610.272 598.731,-633.272 596.731,-633.272 596.731,-610.272 593.731,-599.272 595.751,-599.272 
		588.731,-515.272 583.731,-512.272 585.731,-508.272 576.812,-482.921 571.731,-480.373 571.731,-477.853 576.812,-475.083 
		569.292,-467.272 565.731,-467.272 565.731,-498.272 556.731,-498.272 556.731,-578.272 529.731,-578.272 529.731,-513.272 
		518.731,-513.272 518.731,-491.272 512.731,-491.272 512.731,-524.272 506.731,-524.272 493.691,-515.272 470.731,-515.272 
		470.731,-480.272 439.731,-480.272 439.731,-494.272 430.731,-494.272 430.731,-522.272 412.731,-522.272 412.731,-510.272 
		405.731,-510.272 405.731,-505.272 386.731,-505.272 386.731,-512.272 380.731,-512.272 380.731,-486.272 371.731,-486.272 
		371.731,-541.272 300.731,-541.272 300.731,-488.272 257.731,-488.272 257.731,-482.272 238.731,-490.453 238.731,-509.272 
		214.731,-509.272 214.731,-491.272 192.731,-491.272 192.731,-507.272 162.731,-507.272 162.731,-487.933 155.731,-494.232 
		155.731,-585.272 164.731,-600.272 154.731,-610.272 145.731,-646.272 135.731,-610.272 125.731,-600.272 135.731,-585.272 
		135.731,-490.272 121.731,-490.272 121.731,-470.272 102.731,-470.272 102.731,-513.272 95.731,-513.272 95.731,-518.272 
		86.731,-518.272 86.731,-512.272 82.731,-512.272 82.731,-515.272 73.731,-515.272 73.731,-467.272 56.731,-467.272 
		56.731,-509.272 48.731,-509.272 48.731,-498.272 38.731,-498.272 38.731,-519.272 27.731,-519.272 27.731,-524.272 
		13.731,-524.272 13.731,-515.272 7.731,-515.272 7.731,-495.272 -5.269,-495.272 -9.269,-494.232 -9.269,-444.272 
		-34.269,-444.272 -34.269,1134.728 1215.731,1134.728 1215.731,-444.272 	"/>
</g>
<g id="Layer_1">
	<polygon fill="#404876" points="568.667,-797.983 361.69,-797.983 361.69,200.728 405.108,200.728 405.108,-759.928 
		527.024,-759.928 527.024,200.728 568.667,200.728 	"/>
</g>
<g id="BODY">
	<g>
		<path fill="#FFFFFF" d="M1309.731,1927.728c0,5.5-4.5,10-10,10h-1350c-5.5,0-10-4.5-10-10v-2268.86c0-5.5,4.5-10,10-10h1350
			c5.5,0,10,4.5,10,10V1927.728z"/>
	</g>
</g>
<g id="Road_to_Enlightenment">
	<path fill="#E1E7F9" stroke="#E1E7F9" stroke-miterlimit="10" d="M211.404,0.539L13.896,79.198c0,0-13.396,6.526-13.396,22.671
		c0,13.74,6.291,20.158,13.396,25.074c7.812,5.406,197.508,77.973,197.508,77.973l197.851-79.346c0,0,12.709-4.122,12.709-23.701
		c0-19.58-12.709-21.983-12.709-21.983L211.404,0.539z"/>
	<g>
		<g>
			<path fill="#F7F8F9" d="M294.731,181.728c-43.561,0-79-35.439-79-79s35.439-79,79-79s79,35.439,79,79
				S338.292,181.728,294.731,181.728z"/>
			<g>
				<path fill="#C2C3C4" d="M294.731,25.728c42.458,0,77,34.542,77,77s-34.542,77-77,77s-77-34.542-77-77
					S252.273,25.728,294.731,25.728 M294.731,21.728c-44.735,0-81,36.266-81,81c0,44.735,36.265,81,81,81s81-36.265,81-81
					C375.731,57.993,339.466,21.728,294.731,21.728L294.731,21.728z"/>
			</g>
		</g>
		<circle fill="#F6DE61" cx="294.731" cy="102.728" r="37"/>
		<rect x="276.732" y="83.728" fill="none" width="109" height="81"/>
		<text transform="matrix(1 0 0 1 276.7319 111.4111)" fill="#FFFFFF" font-family="'Magra-Bold'" font-size="36">75</text>
		<g>
			<path fill="#F7F8F9" d="M206.731,181.728c-43.561,0-79-35.439-79-79s35.439-79,79-79s79,35.439,79,79
				S250.292,181.728,206.731,181.728z"/>
			<g>
				<path fill="#C2C3C4" d="M206.731,25.728c42.458,0,77,34.542,77,77s-34.542,77-77,77s-77-34.542-77-77
					S164.273,25.728,206.731,25.728 M206.731,21.728c-44.735,0-81,36.266-81,81s36.265,81,81,81s81-36.266,81-81
					S251.466,21.728,206.731,21.728L206.731,21.728z"/>
			</g>
		</g>
		<circle fill="#404876" cx="206.731" cy="102.728" r="37"/>
		<rect x="188.731" y="83.728" fill="none" width="109" height="81"/>
		<text transform="matrix(1 0 0 1 188.7314 111.4111)" fill="#FFFFFF" font-family="'Magra-Bold'" font-size="36">50</text>
		<g>
			<path fill="#F7F8F9" d="M117.731,181.728c-43.561,0-79-35.439-79-79s35.439-79,79-79s79,35.439,79,79
				S161.292,181.728,117.731,181.728z"/>
			<g>
				<path fill="#C2C3C4" d="M117.731,25.728c42.458,0,77,34.542,77,77s-34.542,77-77,77s-77-34.542-77-77
					S75.273,25.728,117.731,25.728 M117.731,21.728c-44.735,0-81,36.266-81,81c0,44.735,36.265,81,81,81s81-36.265,81-81
					C198.731,57.993,162.466,21.728,117.731,21.728L117.731,21.728z"/>
			</g>
		</g>
		<circle fill="#DB3B47" cx="117.731" cy="102.728" r="37"/>
		<rect x="99.732" y="83.728" fill="none" width="109" height="81"/>
		<text transform="matrix(1 0 0 1 99.7319 111.4111)" fill="#FFFFFF" font-family="'Magra-Bold'" font-size="36">25</text>
	</g>
</g>
<g id="Layer_8" display="none">
	<g display="inline">
		<g>
			<path fill="#2B3451" d="M306.972,9.513v0.553c0-0.186,0.026-0.369,0.065-0.553H306.972z"/>
			<path fill="#2B3451" d="M393.469,25.036c-47.772,0-86.498-6.701-86.498-14.971v14.971c0,0,0.025,0.002,0.064,0.006
				c-0.039,0.182-0.064,0.365-0.064,0.549c0,8.27,38.726,14.973,86.498,14.973c47.771,0,86.497-6.703,86.497-14.973
				c0-0.184-0.026-0.367-0.064-0.549c0.04-0.004,0.064-0.006,0.064-0.006V10.065C479.966,18.335,441.241,25.036,393.469,25.036z"/>
		</g>
		<ellipse fill="#3A436B" cx="393.469" cy="10.067" rx="86.497" ry="14.971"/>
		<ellipse fill="#404876" cx="393.469" cy="11.177" rx="77.626" ry="11.643"/>
		<ellipse fill="#2B3451" cx="393.469" cy="11.177" rx="40.662" ry="6.098"/>
		<path fill="#2B3451" d="M393.469,0.642c41.632,0,75.607,4.916,77.536,11.088c0.058-0.184,0.09-0.367,0.09-0.553
			c0-6.432-34.754-11.645-77.625-11.645c-42.872,0-77.626,5.213-77.626,11.645c0,0.186,0.032,0.369,0.09,0.553
			C317.862,5.558,351.836,0.642,393.469,0.642z"/>
		<g>
			<g>
				<path fill="#FFFFFF" d="M390.852,12.019v0.748l-15.997,0.001c0.173-0.28,0.693-0.546,1.559-0.798s2.577-0.587,5.132-1.006
					c2.057-0.34,3.318-0.569,3.784-0.69c0.628-0.167,0.942-0.331,0.942-0.493c0-0.18-0.273-0.316-0.82-0.412
					c-0.547-0.096-1.302-0.142-2.266-0.14c-0.953,0.002-1.71,0.054-2.273,0.155s-0.888,0.27-0.975,0.504l-4.547-0.072
					c0.27-0.44,1.12-0.758,2.549-0.953c1.429-0.194,3.215-0.295,5.36-0.3c2.349-0.006,4.195,0.102,5.538,0.322
					c1.342,0.221,2.014,0.497,2.014,0.83c0,0.189-0.192,0.37-0.577,0.542c-0.384,0.171-0.994,0.352-1.827,0.539
					c-0.552,0.125-1.548,0.305-2.988,0.538c-1.44,0.234-2.353,0.389-2.736,0.465c-0.384,0.077-0.696,0.151-0.935,0.224
					L390.852,12.019z"/>
				<path fill="#FFFFFF" d="M394.002,11.684l4.548-0.087c0.129,0.183,0.514,0.327,1.153,0.434c0.639,0.106,1.374,0.159,2.208,0.159
					c0.953,0,1.759-0.069,2.42-0.207c0.66-0.139,0.99-0.347,0.99-0.624c0-0.261-0.327-0.455-0.982-0.584
					c-0.655-0.13-1.507-0.193-2.558-0.192c-1.31,0.002-2.485,0.105-3.524,0.312l-3.703-0.091l2.339-2.198l12.066-0.028v0.762
					l-8.607,0.017l-0.714,0.719c1.018-0.092,2.057-0.139,3.118-0.14c2.024-0.004,3.741,0.125,5.148,0.385
					c1.407,0.261,2.111,0.602,2.111,1.021c0,0.351-0.568,0.662-1.705,0.938c-1.548,0.374-3.698,0.562-6.447,0.562
					c-2.198,0-3.99-0.104-5.376-0.313C395.102,12.316,394.273,12.036,394.002,11.684z"/>
			</g>
		</g>
	</g>
	<g display="inline">
		<g>
			<path fill="#CEB54D" d="M380.869,10.802c-47.772,0-86.498-6.703-86.498-14.971v14.971c0,0,0.025,0.002,0.064,0.004
				c-0.038,0.184-0.064,0.366-0.064,0.551c0,8.268,38.726,14.971,86.498,14.971c47.771,0,86.498-6.703,86.498-14.971
				c0-0.185-0.026-0.367-0.064-0.551c0.039-0.002,0.064-0.004,0.064-0.004V-4.169C467.367,4.099,428.641,10.802,380.869,10.802z"/>
		</g>
		<ellipse fill="#DBC565" cx="380.869" cy="-4.169" rx="86.498" ry="14.971"/>
		<ellipse fill="#E2C756" cx="380.869" cy="-3.06" rx="77.626" ry="11.645"/>
		<ellipse fill="#CEB54D" cx="380.869" cy="-3.06" rx="40.662" ry="6.1"/>
	</g>
	<g display="inline">
		<g>
			<path fill="#B42C44" d="M381.754-6.838c-47.772,0-86.498-6.703-86.498-14.971v14.971c0,0,0.025,0.002,0.064,0.004
				c-0.038,0.184-0.064,0.366-0.064,0.551c0,8.268,38.726,14.971,86.498,14.971c47.771,0,86.498-6.703,86.498-14.971
				c0-0.185-0.026-0.367-0.064-0.551c0.039-0.002,0.064-0.004,0.064-0.004v-14.971C468.251-13.541,429.525-6.838,381.754-6.838z"/>
		</g>
	</g>
</g>
<g id="Layer_7">
</g>
<g id="Cards_x2F_Participation">
</g>
<g id="Martinis">
</g>
<g id="_x37_77">
</g>
</svg>
