<?xml version="1.0" encoding="utf-8"?>
<!-- Generator: Adobe Illustrator 16.0.0, SVG Export Plug-In . SVG Version: 6.00 Build 0)  -->
<!DOCTYPE svg PUBLIC "-//W3C//DTD SVG 1.1//EN" "http://www.w3.org/Graphics/SVG/1.1/DTD/svg11.dtd">
<svg version="1.1" xmlns="http://www.w3.org/2000/svg" xmlns:xlink="http://www.w3.org/1999/xlink" x="0px" y="0px" width="423px"
	 height="207px" viewBox="0 0 423 207" enable-background="new 0 0 423 207" xml:space="preserve">
<g id="Layer_2">
</g>
<g id="Layer_12">
	<rect fill="#FFFFFF" width="423" height="207"/>
</g>
<g id="Layer_7_copy">
</g>
<g id="Layer_3">
</g>
<g id="Layer_4">
	<polygon fill="#252B3D" points="1196,-1342 1196,-1364 1156,-1364 1156,-1369 1144,-1369 1135,-1372 1135,-1377 1135,-1384.4 
		1135,-1397 1134,-1405 1129,-1412 1129,-1425.98 1131.369,-1428.5 1135,-1433.54 1135,-1438.58 1127.479,-1441.1 1125,-1444.88 
		1125,-1452 1119.96,-1452 1118.7,-1445.92 1114.92,-1447.29 1112.4,-1456.165 1114.92,-1462.493 1113.66,-1466.286 
		1111.14,-1468.813 1108.62,-1462.517 1109.88,-1459.998 1111.14,-1446.139 1113.66,-1439.839 1116,-1412.12 1111,-1405 1109,-1384 
		1107,-1372 1100,-1372 1100,-1368 1093,-1368 1093,-1376 1081,-1376 1081,-1391 1077,-1391 1077,-1423 1072,-1423 1072,-1437 
		1047,-1437 1047,-1445 981,-1445 981,-1455 987.66,-1455 975.689,-1466.97 963.72,-1455 970.02,-1455 970,-1445 906,-1445 
		906,-1434 884,-1434 884,-1452 860,-1452 860,-1466 852,-1466 852,-1487 841,-1513 831,-1487 831,-1466 804,-1466 804,-1491 
		791,-1491 791,-1481 781,-1481 781,-1426 772,-1426 772,-1441 767,-1446 762,-1441 762,-1426 755,-1426 755,-1469 743,-1469 
		743,-1488 705,-1488 705,-1475 675,-1475 675,-1500 671,-1500 671,-1510 661,-1510 661,-1531 652,-1531 652,-1510 647,-1510 
		647,-1499 637,-1499 637,-1474 632,-1474 632,-1355.42 616.92,-1373.06 622,-1375.58 622,-1378 615.83,-1380.62 613.375,-1386.92 
		606,-1406 609,-1410 605,-1413 597,-1497 599,-1497 595,-1508 595,-1531 593,-1531 593,-1508 590,-1497 592.02,-1497 585,-1413 
		580,-1410 582,-1406 573.08,-1380.649 568,-1378.1 568,-1375.58 573.08,-1372.81 565.56,-1365 562,-1365 562,-1396 553,-1396 
		553,-1476 526,-1476 526,-1411 515,-1411 515,-1389 509,-1389 509,-1422 503,-1422 489.96,-1413 467,-1413 467,-1378 436,-1378 
		436,-1392 427,-1392 427,-1420 409,-1420 409,-1408 402,-1408 402,-1403 383,-1403 383,-1410 377,-1410 377,-1384 368,-1384 
		368,-1439 297,-1439 297,-1386 254,-1386 254,-1380 235,-1388.18 235,-1407 211,-1407 211,-1389 189,-1389 189,-1405 159,-1405 
		159,-1385.66 152,-1391.96 152,-1483 161,-1498 151,-1508 142,-1544 132,-1508 122,-1498 132,-1483 132,-1388 118,-1388 118,-1368 
		99,-1368 99,-1411 92,-1411 92,-1416 83,-1416 83,-1410 79,-1410 79,-1413 70,-1413 70,-1365 53,-1365 53,-1407 45,-1407 45,-1396 
		35,-1396 35,-1417 24,-1417 24,-1422 10,-1422 10,-1413 4,-1413 4,-1393 -9,-1393 -13,-1391.96 -13,-1342 -38,-1342 -38,237 
		1212,237 1212,-1342 	"/>
</g>
<g id="Layer_1">
</g>
<g id="BODY">
	<g>
		<path fill="#FFFFFF" d="M1306,1030c0,5.5-4.5,10-10,10H-54c-5.5,0-10-4.5-10-10v-2268.86c0-5.5,4.5-10,10-10h1350
			c5.5,0,10,4.5,10,10V1030z"/>
	</g>
</g>
<g id="Road_to_Enlightenment">
</g>
<g id="Layer_8" display="none">
</g>
<g id="Layer_7">
</g>
<g id="Cards_x2F_Participation">
	<g>
		<path fill="#E1E7F9" d="M211.672,1.696L14.165,80.355c0,0-13.396,6.526-13.396,22.671c0,13.74,6.291,20.158,13.396,25.074
			c7.812,5.406,197.508,77.973,197.508,77.973l197.851-79.346c0,0,12.709-4.122,12.709-23.701c0-19.58-12.709-21.983-12.709-21.983
			L211.672,1.696z"/>
		<g>
			<g>
				<g>
					<path fill="#F7F8F9" d="M56.46,156c-3.562,0-6.46-2.517-6.46-5.941V26.531C50,23.106,52.898,20,56.46,20h91.444
						c3.563,0,6.095,3.106,6.095,6.531v123.527c0,3.425-2.532,5.941-6.095,5.941H56.46z"/>
					<path fill="#C2C3C4" d="M147.905,22c2.463,0,4.095,2.205,4.095,4.531v123.527c0,2.326-1.632,3.941-4.095,3.941H56.46
						c-2.462,0-4.46-1.615-4.46-3.941V26.531C52,24.205,53.999,22,56.46,22H148 M147.905,18H56.46C51.795,18,48,22.004,48,26.531
						v123.527c0,4.527,3.795,7.941,8.46,7.941h91.444c4.666,0,8.095-3.414,8.095-7.941V26.531C156,22.004,152.57,18,147.905,18
						L147.905,18z"/>
				</g>
				<path fill-rule="evenodd" clip-rule="evenodd" fill="#DB3B47" d="M101.823,78.07c-5.1-12.598-19.596-9.658-19.69,4.961
					c-0.053,8.029,6.901,13.078,11.532,16.289c4.492,3.113,7.688,5.326,8.188,7.139c0.428-1.777,3.989-4.109,8.146-7.227
					c4.544-3.406,11.586-8.258,11.534-16.287C121.437,68.289,106.688,65.975,101.823,78.07z"/>
			</g>
			<g>
				<g>
					<path fill="#F7F8F9" d="M130.46,187c-3.562,0-6.46-2.335-6.46-5.76V57.711c0-3.425,2.898-5.711,6.46-5.711h91.445
						c3.563,0,6.094,2.286,6.094,5.711V181.24c0,3.425-2.531,5.76-6.094,5.76H130.46z"/>
					<path fill="#C2C3C4" d="M221.906,54c2.462,0,4.094,1.385,4.094,3.711V181.24c0,2.324-1.632,3.76-4.094,3.76H130.46
						c-2.462,0-4.46-1.436-4.46-3.76V57.711c0-2.326,1.998-3.711,4.46-3.711H222 M221.906,50H130.46c-4.665,0-8.46,3.184-8.46,7.711
						V181.24c0,4.527,3.795,7.76,8.46,7.76h91.445c4.666,0,8.094-3.232,8.094-7.76V57.711C230,53.184,226.571,50,221.906,50
						L221.906,50z"/>
				</g>
				<g>
					<path fill-rule="evenodd" clip-rule="evenodd" fill="#F6DE61" d="M193.914,119.67c0.046-7.225-6.291-9.318-10.38-12.385
						c-3.741-2.805-6.946-7.178-7.331-8.777c-0.452,1.633-3.329,5.896-7.37,8.699c-4.168,2.889-10.427,5.158-10.38,12.385
						c0.084,13.158,13.132,15.805,17.722,4.467C180.553,134.943,193.827,132.861,193.914,119.67z"/>
					<path fill="#F6DE61" d="M175.426,122c0,0,2.084,14-12.318,18h26.152c0,0-12.317-3-12.508-18H175.426z"/>
				</g>
			</g>
			<g>
				<g>
					<path fill="#F7F8F9" d="M205.093,156c-3.563,0-6.093-2.515-6.093-5.939V26.531c0-3.426,2.53-6.531,6.093-6.531h91.446
						c3.563,0,6.461,3.105,6.461,6.531v123.529c0,3.425-2.898,5.939-6.461,5.939H205.093z"/>
					<path fill="#C2C3C4" d="M296.539,22c2.463,0,4.461,2.205,4.461,4.531v123.529c0,2.324-1.999,3.939-4.461,3.939h-91.446
						c-2.463,0-4.093-1.615-4.093-3.939V26.531c0-2.326,1.629-4.531,4.093-4.531H297 M296.539,18h-91.446
						c-4.666,0-8.093,4.003-8.093,8.531v123.529c0,4.527,3.427,7.939,8.093,7.939h91.446c4.666,0,8.461-3.412,8.461-7.939V26.531
						C305,22.003,301.204,18,296.539,18L296.539,18z"/>
				</g>
				<g>
					<polygon fill="#232323" points="251.309,108.303 234.862,89.721 250.324,68.289 266.769,88.252 					"/>
					<polygon fill="#232323" points="251.309,108.303 234.862,89.721 250.324,68.289 266.769,88.252 					"/>
				</g>
			</g>
			<g>
				<path fill="#F7F8F9" d="M275.096,187c-3.562,0-6.096-2.335-6.096-5.76V57.713c0-3.425,2.533-5.713,6.096-5.713h91.444
					c3.562,0,6.46,2.288,6.46,5.713V181.24c0,3.425-2.898,5.76-6.46,5.76H275.096z"/>
				<path fill="#C2C3C4" d="M366.54,54c2.462,0,4.46,1.387,4.46,3.713V181.24c0,2.324-1.998,3.76-4.46,3.76h-91.444
					c-2.464,0-4.096-1.436-4.096-3.76V57.713c0-2.326,1.632-3.713,4.096-3.713H367 M366.54,50h-91.444
					C270.43,50,267,53.186,267,57.713V181.24c0,4.527,3.43,7.76,8.096,7.76h91.444c4.665,0,8.46-3.232,8.46-7.76V57.713
					C375,53.186,371.205,50,366.54,50L366.54,50z"/>
			</g>
		</g>
	</g>
	<path fill="#404876" d="M330.539,138.243c5.51,0,9.978-4.353,9.978-9.721c0-5.369-4.468-9.722-9.978-9.722
		c-0.165,0-0.325,0.016-0.488,0.023c0.149-0.667,0.232-1.359,0.232-2.07c0-5.368-4.467-9.722-9.978-9.722
		c-5.51,0-9.977,4.354-9.977,9.722c0,0.895,0.134,1.756,0.366,2.578c-5.322,0.207-9.576,4.466-9.576,9.702
		c0,5.368,4.468,9.721,9.979,9.721c4.132,0,7.677-2.663,9.192-6.151C320.076,136.549,318.38,144,309.136,146h23.537
		c0,0-9.661-2.018-11.083-13.418C323.214,135.804,326.605,138.243,330.539,138.243z M320.754,126.633
		c-0.015-0.06-0.029-0.119-0.046-0.177c0.028-0.002,0.058-0.004,0.086-0.005C320.781,126.512,320.767,126.572,320.754,126.633z"/>
</g>
<g id="Martinis">
</g>
<g id="_x37_77">
</g>
</svg>
