<?xml version="1.0" encoding="utf-8"?>
<!-- Generator: Adobe Illustrator 16.0.0, SVG Export Plug-In . SVG Version: 6.00 Build 0)  -->
<!DOCTYPE svg PUBLIC "-//W3C//DTD SVG 1.1//EN" "http://www.w3.org/Graphics/SVG/1.1/DTD/svg11.dtd">
<svg version="1.1" xmlns="http://www.w3.org/2000/svg" xmlns:xlink="http://www.w3.org/1999/xlink" x="0px" y="0px" width="423px"
	 height="207px" viewBox="0 0 423 207" enable-background="new 0 0 423 207" xml:space="preserve">
<g id="Layer_2">
	<rect x="-853.218" y="-1557.991" fill="#2F3751" width="1282.436" height="2057.181"/>
</g>
<g id="Layer_12">
	<rect fill="#FFFFFF" width="423" height="207"/>
</g>
<g id="Layer_7_copy">
</g>
<g id="Layer_3">
</g>
<g id="Layer_4">
	<polygon fill="#252B3D" points="393,-834 393,-856 353,-856 353,-861 341,-861 332,-864 332,-869 332,-876.4 332,-889 331,-897 
		326,-904 326,-917.98 328.369,-920.5 332,-925.54 332,-930.58 324.479,-933.1 322,-936.88 322,-944 316.96,-944 315.7,-937.92 
		311.92,-939.29 309.4,-948.165 311.92,-954.493 310.66,-958.286 308.14,-960.813 305.62,-954.517 306.88,-951.998 308.14,-938.139 
		310.66,-931.839 313,-904.12 308,-897 306,-876 304,-864 297,-864 297,-860 290,-860 290,-868 278,-868 278,-883 274,-883 
		274,-915 269,-915 269,-929 244,-929 244,-937 178,-937 178,-947 184.66,-947 172.689,-958.97 160.72,-947 167.02,-947 167,-937 
		103,-937 103,-926 81,-926 81,-944 57,-944 57,-958 49,-958 49,-979 38,-1005 28,-979 28,-958 1,-958 1,-983 -12,-983 -12,-973 
		-22,-973 -22,-918 -31,-918 -31,-933 -36,-938 -41,-933 -41,-918 -48,-918 -48,-961 -60,-961 -60,-980 -98,-980 -98,-967 
		-128,-967 -128,-992 -132,-992 -132,-1002 -142,-1002 -142,-1023 -151,-1023 -151,-1002 -156,-1002 -156,-991 -166,-991 -166,-966 
		-171,-966 -171,-847.42 -186.08,-865.06 -181,-867.58 -181,-870 -187.17,-872.62 -189.625,-878.92 -197,-898 -194,-902 -198,-905 
		-206,-989 -204,-989 -208,-1000 -208,-1023 -210,-1023 -210,-1000 -213,-989 -210.98,-989 -218,-905 -223,-902 -221,-898 
		-229.92,-872.649 -235,-870.1 -235,-867.58 -229.92,-864.81 -237.44,-857 -241,-857 -241,-888 -250,-888 -250,-968 -277,-968 
		-277,-903 -288,-903 -288,-881 -294,-881 -294,-914 -300,-914 -313.04,-905 -336,-905 -336,-870 -367,-870 -367,-884 -376,-884 
		-376,-912 -394,-912 -394,-900 -401,-900 -401,-895 -420,-895 -420,-902 -426,-902 -426,-876 -435,-876 -435,-931 -506,-931 
		-506,-878 -549,-878 -549,-872 -568,-880.18 -568,-899 -592,-899 -592,-881 -614,-881 -614,-897 -644,-897 -644,-877.66 
		-651,-883.96 -651,-975 -642,-990 -652,-1000 -661,-1036 -671,-1000 -681,-990 -671,-975 -671,-880 -685,-880 -685,-860 -704,-860 
		-704,-903 -711,-903 -711,-908 -720,-908 -720,-902 -724,-902 -724,-905 -733,-905 -733,-857 -750,-857 -750,-899 -758,-899 
		-758,-888 -768,-888 -768,-909 -779,-909 -779,-914 -793,-914 -793,-905 -799,-905 -799,-885 -812,-885 -816,-883.96 -816,-834 
		-841,-834 -841,745 409,745 409,-834 	"/>
</g>
<g id="Layer_1">
</g>
<g id="BODY">
	<g>
		<path fill="#FFFFFF" d="M503,1538c0,5.5-4.5,10-10,10H-857c-5.5,0-10-4.5-10-10V-730.86c0-5.5,4.5-10,10-10H493
			c5.5,0,10,4.5,10,10V1538z"/>
	</g>
</g>
<g id="Road_to_Enlightenment">
</g>
<g id="Layer_8" display="none">
</g>
<g id="Layer_7">
</g>
<g id="Cards_x2F_Participation">
</g>
<g id="Martinis">
</g>
<g id="_x37_77">
	<path fill="#E1E7F9" d="M211.904,1.623L14.396,80.282c0,0-13.396,6.526-13.396,22.671c0,13.74,6.291,20.158,13.396,25.074
		C22.209,133.434,211.904,206,211.904,206l197.851-79.346c0,0,12.709-4.122,12.709-23.701c0-19.58-12.709-21.983-12.709-21.983
		L211.904,1.623z"/>
	<g>
		<g>
			<path fill="#F7F8F9" d="M356,180c0,2.762-2.238,5-5,5H72c-2.762,0-5-2.238-5-5V28c0-2.762,2.238-5,5-5h279c2.762,0,5,2.238,5,5
				V180z"/>
			<path fill="#C2C3C4" d="M351.03,25c1.65,0,2.97,1.161,2.97,2.812v152c0,1.65-1.319,3.188-2.97,3.188H72.434
				c-1.65,0-3.434-1.538-3.434-3.188v-152C69,26.161,70.783,25,72.434,25H351 M351.03,21H72.434C68.574,21,65,23.952,65,27.812v152
				c0,3.86,3.574,7.188,7.434,7.188H351.03c3.86,0,6.97-3.328,6.97-7.188v-152C358,23.952,354.891,21,351.03,21L351.03,21z"/>
		</g>
		<g>
			<g>
				<g>
					<path fill="#FFFFFF" d="M335,157.743c0,2.903-2.354,5.257-5.257,5.257h-61.486c-2.903,0-5.257-2.354-5.257-5.257V50.257
						c0-2.903,2.354-5.257,5.257-5.257h61.486c2.903,0,5.257,2.354,5.257,5.257V157.743z"/>
					<path fill="#C2C3C4" d="M329.871,47c1.799,0,3.129,1.458,3.129,3.257v107.486c0,1.798-1.558,3.257-3.356,3.257h-61.886
						c-1.799,0-2.758-1.459-2.758-3.257V50.257c0-1.799,0.959-3.257,2.758-3.257H330 M329.644,43h-61.886
						c-4.002,0-6.758,3.256-6.758,7.257v107.486c0,4.001,2.756,7.257,6.758,7.257h61.886c4.002,0,7.356-3.256,7.356-7.257V50.257
						c0-4.001-3.305-7.257-7.307-7.257H329.644z"/>
				</g>
				<g>
					<path fill="#404876" d="M319,87.615c-5,4.864-9.294,9.002-12.108,12.412c-3.812,4.638-6.767,8.771-8.538,12.861
						c-2.09,4.818-3.296,11.111-3.296,15.111H284v-3.427c2-5.64,2.827-9.23,3.552-10.776c1.229-2.641,2.993-5.436,5.628-8.391
						c2.041-2.274,6.293-6.687,12.922-13.235c-1.226-0.363-2.082-0.79-2.492-0.86c-0.407-0.066-0.926-0.311-1.47-0.311
						c-0.273,0-0.683,0-1.227,0c-0.545,0-1.226,0-2.043,0c-4.721,0-7.863,0.637-9.43,1.482s-2.94,3.14-4.119,6.664
						c-1.407-0.318-2.435-0.583-3.229-0.901c-0.796-0.315-1.092-0.811-3.092-1.58V81h40V87.615z"/>
				</g>
			</g>
			<g>
				<g>
					<path fill="#FFFFFF" d="M162,157.743c0,2.903-2.354,5.257-5.257,5.257H95.257c-2.903,0-5.257-2.354-5.257-5.257V50.257
						C90,47.354,92.354,45,95.257,45h61.486c2.903,0,5.257,2.354,5.257,5.257V157.743z"/>
					<path fill="#C2C3C4" d="M156.871,47c1.799,0,3.129,1.458,3.129,3.257v107.486c0,1.798-1.558,3.257-3.356,3.257H94.758
						c-1.799,0-2.758-1.459-2.758-3.257V50.257C92,48.458,92.959,47,94.758,47H157 M156.644,43H94.758
						C90.756,43,88,46.256,88,50.257v107.486c0,4.001,2.756,7.257,6.758,7.257h61.886c4.002,0,7.356-3.256,7.356-7.257V50.257
						c0-4.001-3.305-7.257-7.307-7.257H156.644z"/>
				</g>
				<g>
					<path fill="#DB3B47" d="M146,87.615c-5,4.864-9.294,9.002-12.108,12.412c-3.812,4.638-6.767,8.771-8.538,12.861
						c-2.09,4.818-3.296,11.111-3.296,15.111H111v-3.427c2-5.64,2.827-9.23,3.552-10.776c1.229-2.641,2.993-5.436,5.628-8.391
						c2.041-2.274,6.293-6.687,12.922-13.235c-1.226-0.363-2.082-0.79-2.492-0.86c-0.407-0.066-0.926-0.311-1.47-0.311
						c-0.273,0-0.683,0-1.227,0c-0.545,0-1.226,0-2.043,0c-4.721,0-7.863,0.637-9.43,1.482s-2.94,3.14-4.119,6.664
						c-1.407-0.318-2.435-0.583-3.229-0.901c-0.796-0.315-1.092-0.811-3.092-1.58V81h40V87.615z"/>
				</g>
			</g>
			<g>
				<g>
					<path fill="#FFFFFF" d="M249,157.743c0,2.903-2.354,5.257-5.257,5.257h-61.486c-2.903,0-5.257-2.354-5.257-5.257V50.257
						c0-2.903,2.354-5.257,5.257-5.257h61.486c2.903,0,5.257,2.354,5.257,5.257V157.743z"/>
					<path fill="#C2C3C4" d="M243.871,47c1.799,0,3.129,1.458,3.129,3.257v107.486c0,1.798-1.558,3.257-3.356,3.257h-61.886
						c-1.799,0-2.758-1.459-2.758-3.257V50.257c0-1.799,0.959-3.257,2.758-3.257H244 M243.644,43h-61.886
						c-4.002,0-6.758,3.256-6.758,7.257v107.486c0,4.001,2.756,7.257,6.758,7.257h61.886c4.002,0,7.356-3.256,7.356-7.257V50.257
						c0-4.001-3.305-7.257-7.307-7.257H243.644z"/>
				</g>
				<g>
					<path fill="#F6DE61" d="M233,87.615c-5,4.864-9.294,9.002-12.108,12.412c-3.812,4.638-6.767,8.771-8.538,12.861
						c-2.09,4.818-3.296,11.111-3.296,15.111H198v-3.427c2-5.64,2.827-9.23,3.552-10.776c1.229-2.641,2.993-5.436,5.628-8.391
						c2.041-2.274,6.293-6.687,12.922-13.235c-1.226-0.363-2.082-0.79-2.492-0.86c-0.407-0.066-0.926-0.311-1.47-0.311
						c-0.273,0-0.683,0-1.227,0c-0.545,0-1.226,0-2.043,0c-4.721,0-7.863,0.637-9.43,1.482s-2.94,3.14-4.119,6.664
						c-1.407-0.318-2.435-0.583-3.229-0.901c-0.796-0.315-1.092-0.811-3.092-1.58V81h40V87.615z"/>
				</g>
			</g>
		</g>
	</g>
</g>
</svg>
