<?xml version="1.0" encoding="utf-8"?>
<!-- Generator: Adobe Illustrator 16.0.0, SVG Export Plug-In . SVG Version: 6.00 Build 0)  -->
<!DOCTYPE svg PUBLIC "-//W3C//DTD SVG 1.1//EN" "http://www.w3.org/Graphics/SVG/1.1/DTD/svg11.dtd">
<svg version="1.1" xmlns="http://www.w3.org/2000/svg" xmlns:xlink="http://www.w3.org/1999/xlink" x="0px" y="0px" width="423px"
	 height="210px" viewBox="0 0 423 210" enable-background="new 0 0 423 210" xml:space="preserve">
<g id="Layer_2">
</g>
<g id="Layer_12">
</g>
<g id="Layer_7_copy">
</g>
<g id="Layer_3">
</g>
<g id="Layer_4">
</g>
<g id="Layer_1">
</g>
<g id="BODY">
	<g>
		<path fill="#FFFFFF" d="M1311,342c0,5.5-4.5,10-10,10H-49c-5.5,0-10-4.5-10-10v-2268.86c0-5.5,4.5-10,10-10h1350
			c5.5,0,10,4.5,10,10V342z"/>
	</g>
</g>
<g id="Road_to_Enlightenment">
</g>
<g id="Layer_8" display="none">
</g>
<g id="Layer_7">
</g>
<g id="Cards_x2F_Participation">
</g>
<g id="Martinis">
	<path fill="#E1E7F9" d="M211.903,4.183L15.478,82.411c0,0-13.324,6.49-13.324,22.547c0,13.665,6.257,20.048,13.324,24.937
		c7.769,5.377,196.425,77.546,196.425,77.546l196.767-78.911c0,0,12.64-4.1,12.64-23.571c0-19.473-12.64-21.863-12.64-21.863
		L211.903,4.183z"/>
	<g>
		<g>
			<g>
				<path fill="#F7F8F9" d="M146,146c0,5.523-4.477,10-10,10H55c-5.523,0-10-4.477-10-10V65c0-5.523,4.477-10,10-10h81
					c5.523,0,10,4.477,10,10V146z"/>
				<path fill="none" stroke="#C2C3C4" stroke-width="4" d="M146,146c0,5.523-4.477,10-10,10H55c-5.523,0-10-4.477-10-10V65
					c0-5.523,4.477-10,10-10h81c5.523,0,10,4.477,10,10V146z"/>
			</g>
			<circle fill="#F6DE61" cx="95.5" cy="105.812" r="9"/>
		</g>
		<g>
			<g>
				<path fill="#F7F8F9" d="M378,146c0,5.523-4.477,10-10,10h-81c-5.523,0-10-4.477-10-10V65c0-5.523,4.477-10,10-10h81
					c5.523,0,10,4.477,10,10V146z"/>
				<path fill="none" stroke="#C2C3C4" stroke-width="4" d="M378,146c0,5.523-4.477,10-10,10h-81c-5.523,0-10-4.477-10-10V65
					c0-5.523,4.477-10,10-10h81c5.523,0,10,4.477,10,10V146z"/>
			</g>
			<g>
				<circle fill="#DB3B47" cx="327.5" cy="105.812" r="9"/>
				<circle fill="#DB3B47" cx="327.5" cy="138.812" r="9"/>
				<circle fill="#DB3B47" cx="357.5" cy="72.812" r="9"/>
				<circle fill="#DB3B47" cx="327.5" cy="72.812" r="9"/>
				<circle fill="#DB3B47" cx="297.5" cy="72.812" r="9"/>
				<circle fill="#DB3B47" cx="297.5" cy="105.812" r="9"/>
				<circle fill="#DB3B47" cx="297.5" cy="138.812" r="9"/>
				<circle fill="#DB3B47" cx="357.5" cy="105.812" r="9"/>
				<circle fill="#DB3B47" cx="357.5" cy="138.812" r="9"/>
			</g>
		</g>
		<g>
			<g>
				<path fill="#F7F8F9" d="M262,146c0,5.523-4.477,10-10,10h-81c-5.523,0-10-4.477-10-10V65c0-5.523,4.477-10,10-10h81
					c5.523,0,10,4.477,10,10V146z"/>
				<path fill="none" stroke="#C2C3C4" stroke-width="4" d="M262,146c0,5.523-4.477,10-10,10h-81c-5.523,0-10-4.477-10-10V65
					c0-5.523,4.477-10,10-10h81c5.523,0,10,4.477,10,10V146z"/>
			</g>
			<g>
				<g>
					<circle fill="#404876" cx="211.5" cy="105.812" r="9"/>
					<circle fill="#404876" cx="181.5" cy="138.812" r="9"/>
				</g>
				<circle fill="#404876" cx="241.5" cy="72.812" r="9"/>
			</g>
		</g>
	</g>
</g>
<g id="_x37_77">
</g>
</svg>
