<?xml version="1.0" encoding="utf-8"?>
<!-- Generator: Adobe Illustrator 16.0.0, SVG Export Plug-In . SVG Version: 6.00 Build 0)  -->
<!DOCTYPE svg PUBLIC "-//W3C//DTD SVG 1.1//EN" "http://www.w3.org/Graphics/SVG/1.1/DTD/svg11.dtd">
<svg version="1.1" id="Layer_1" xmlns="http://www.w3.org/2000/svg" xmlns:xlink="http://www.w3.org/1999/xlink" x="0px" y="0px"
	 width="183px" height="20px" viewBox="0 0 183 20" enable-background="new 0 0 183 20" xml:space="preserve">
<path fill="#F3D94E" d="M11.079,5.037c-2.535-2.535-6.644-2.534-9.178,0c-2.534,2.534-2.535,6.645,0,9.178
	c2.273,2.273,5.811,2.5,8.345,0.696l3.892,3.892c0.136,0.137,0.589-0.096,1.012-0.518c0.423-0.424,0.654-0.875,0.518-1.012
	l-3.892-3.894C13.58,10.848,13.352,7.311,11.079,5.037z M9.549,12.686c-1.688,1.688-4.432,1.688-6.119,0s-1.687-4.433,0-6.12
	c1.688-1.687,4.433-1.687,6.119,0C11.237,8.253,11.237,10.998,9.549,12.686z"/>
<polygon fill="#F3D94E" points="37,9 30,9 30,2 27,2 27,9 20,9 20,12 27,12 27,19 30,19 30,12 37,12 "/>
<g>
	<g>
		<path fill="#F3D94E" d="M54,4v14H42V4H54 M56,2H40v18h16V2L56,2z"/>
	</g>
	<g>
		<rect x="43" y="6" fill="#F3D94E" width="10" height="2"/>
		<rect x="43" y="10" fill="#F3D94E" width="10" height="2"/>
		<rect x="43" y="14" fill="#F3D94E" width="10" height="2"/>
	</g>
</g>
<g>
	<path fill="#F3D94E" d="M64.112,14.727c0.01-1.252,0.124-2.117,0.343-2.592c0.219-0.477,0.804-1.109,1.755-1.898
		c0.924-1.002,1.58-1.775,1.973-2.315c0.391-0.541,0.586-1.192,0.586-1.956c0-0.909-0.263-1.608-0.79-2.097
		C67.453,3.38,66.7,3.135,65.722,3.135c-0.85,0-1.569,0.212-2.161,0.637c-0.592,0.424-0.888,1.049-0.888,1.872h-2.629l-0.043-0.077
		c-0.027-1.381,0.5-2.487,1.58-3.318C62.663,1.416,64.042,1,65.722,1c1.836,0,3.262,0.432,4.279,1.293
		c1.016,0.862,1.523,2.064,1.523,3.608c0,1.105-0.329,2.118-0.985,3.035c-0.658,0.919-1.526,1.857-2.608,2.818
		c-0.494,0.463-0.794,0.879-0.901,1.248c-0.107,0.369-0.161,0.943-0.161,1.725H64.112z M66.952,20h-2.867v-2.675h2.867V20z"/>
</g>
<g>
	<path fill="#F3D94E" d="M98,3v10h-6.25h-0.662l-0.53,0.391L87,16.03v-1.037V13h-2h-3V3H98 M100,1H80v14h5v5.007L91.75,15H100V1
		L100,1z"/>
</g>
<g>
	<path fill="#F3D94E" d="M120,2c4.411,0,8,3.589,8,8s-3.589,8-8,8s-8-3.589-8-8S115.589,2,120,2 M120,0c-5.523,0-10,4.478-10,10
		c0,5.521,4.477,10,10,10s10-4.479,10-10C130,4.478,125.523,0,120,0L120,0z"/>
</g>
<rect x="118" y="4" fill="#F3D94E" width="4" height="9"/>
<polygon fill="#F3D94E" points="116,11 120,16 124,11 "/>
<path fill="#F3D94E" d="M149.761,8.258l-8.007-8.004c-0.338-0.338-0.893-0.338-1.23,0c-0.34,0.338-0.34,0.893,0,1.231L148.037,9
	l-7.514,7.514c-0.34,0.339-0.34,0.894,0,1.231v0.001c0.339,0.339,0.893,0.339,1.231,0l8.006-8.006
	c0.201-0.201,0.268-0.478,0.229-0.741C150.028,8.736,149.962,8.46,149.761,8.258z"/>
<path fill="#F3D94E" d="M160.509,8.258l8.007-8.004c0.338-0.338,0.893-0.338,1.23,0c0.34,0.338,0.34,0.893,0,1.231L162.232,9
	l7.514,7.514c0.34,0.339,0.34,0.894,0,1.231v0.001c-0.339,0.339-0.893,0.339-1.231,0l-8.006-8.006
	c-0.201-0.201-0.268-0.478-0.229-0.741C160.241,8.736,160.308,8.46,160.509,8.258z"/>
</svg>
