<?xml version="1.0" encoding="utf-8"?>
<!-- Generator: Adobe Illustrator 16.0.0, SVG Export Plug-In . SVG Version: 6.00 Build 0)  -->
<!DOCTYPE svg PUBLIC "-//W3C//DTD SVG 1.1//EN" "http://www.w3.org/Graphics/SVG/1.1/DTD/svg11.dtd">
<svg version="1.1" xmlns="http://www.w3.org/2000/svg" xmlns:xlink="http://www.w3.org/1999/xlink" x="0px" y="0px"
	 width="421.464px" height="204.377px" viewBox="0 0 421.464 204.377" enable-background="new 0 0 421.464 204.377"
	 xml:space="preserve">
<g id="Layer_2">
</g>
<g id="Layer_12">
</g>
<g id="Layer_7_copy">
</g>
<g id="Layer_3">
</g>
<g id="Layer_4">
</g>
<g id="Layer_1">
</g>
<g id="BODY">
	<g>
		<path fill="#FFFFFF" d="M1310,602.377c0,5.5-4.5,10-10,10H-50c-5.5,0-10-4.5-10-10v-2268.86c0-5.5,4.5-10,10-10h1350
			c5.5,0,10,4.5,10,10V602.377z"/>
	</g>
</g>
<g id="Road_to_Enlightenment">
</g>
<g id="Layer_8" display="none">
</g>
<g id="Layer_7">
</g>
<g id="Cards_x2F_Participation">
</g>
<g id="Martinis">
	<path fill="#E1E7F9" d="M210.903,0.56L14.478,78.788c0,0-13.324,6.49-13.324,22.547c0,13.665,6.257,20.048,13.324,24.937
		c7.769,5.377,196.425,77.546,196.425,77.546l196.767-78.911c0,0,12.64-4.1,12.64-23.571c0-19.473-12.64-21.863-12.64-21.863
		L210.903,0.56z"/>
	<g>
		<g>
			<ellipse fill="#F7F8F9" stroke="#C2C3C4" stroke-width="4" cx="210.235" cy="159.118" rx="31.391" ry="7.487"/>
			<g>
				<rect x="207" y="79.377" fill="#F7F8F9" width="7" height="77"/>
				<path fill="#C2C3C4" d="M212,81.377v73h-3v-73H212 M216,77.377h-11v81h11V77.377L216,77.377z"/>
			</g>
			<g>
				<polygon fill="#F7F8F9" points="151.859,9.377 268.036,9.377 209.947,88.583 				"/>
				<path fill="#C2C3C4" d="M264.089,11.377l-54.142,73.824l-54.142-73.824H264 M271.983,7.377h-7.894H155.806h-7.894l4.668,6.223
					l54.142,73.754l3.226,4.362l3.226-4.416l54.142-73.69L271.983,7.377L271.983,7.377z"/>
			</g>
			<g>
				<polygon fill="#F6DE61" points="170.652,23.377 209.947,76.957 249.243,23.377 				"/>
			</g>
		</g>
		<g>
			<ellipse fill="#F7F8F9" stroke="#C2C3C4" stroke-width="4" cx="278.224" cy="185.796" rx="31.391" ry="7.488"/>
			<g>
				<rect x="275" y="105.377" fill="#F7F8F9" width="7" height="77"/>
				<path fill="#C2C3C4" d="M280,107.377v73h-3v-73H280 M284,103.377h-11v81h11V103.377L284,103.377z"/>
			</g>
			<g>
				<polygon fill="#F7F8F9" points="219.847,35.377 336.024,35.377 277.936,114.583 				"/>
				<path fill="#C2C3C4" d="M332.077,37.377l-54.142,73.824l-54.142-73.824H332 M339.971,33.377h-7.894H223.794H215.9l4.668,6.562
					l54.142,73.922l3.226,4.448l3.226-4.374l54.142-74.009L339.971,33.377L339.971,33.377z"/>
			</g>
			<g>
				<polygon fill="#404876" points="238.641,50.377 277.936,103.958 317.231,50.377 				"/>
			</g>
		</g>
		<g>
			<ellipse fill="#F7F8F9" stroke="#C2C3C4" stroke-width="4" cx="143.817" cy="185.797" rx="31.391" ry="7.487"/>
			<g>
				<rect x="140" y="105.377" fill="#F7F8F9" width="7" height="77"/>
				<path fill="#C2C3C4" d="M145,107.377v73h-3v-73H145 M149,103.377h-11v81h11V103.377L149,103.377z"/>
			</g>
			<g>
				<polygon fill="#F7F8F9" points="85.44,35.377 201.617,35.377 143.528,114.582 				"/>
				<path fill="#C2C3C4" d="M197.67,37.377L143.528,111.2L89.387,37.377H198 M205.564,33.377h-7.894H89.387h-7.894l4.668,6.562
					l54.142,73.922l3.226,4.447l3.226-4.373l54.142-74.009L205.564,33.377L205.564,33.377z"/>
			</g>
			<g>
				<polygon fill="#DB3B47" points="104.233,50.377 143.528,103.958 182.824,50.377 				"/>
			</g>
		</g>
	</g>
</g>
<g id="_x37_77">
</g>
</svg>
