<?xml version="1.0" encoding="UTF-8"?>
<svg width="511px" height="513px" viewBox="0 0 511 513" version="1.1" xmlns="http://www.w3.org/2000/svg" xmlns:xlink="http://www.w3.org/1999/xlink">
    <!-- Generator: Sketch 63.1 (92452) - https://sketch.com -->
    <title>Shape</title>
    <desc>Created with Sketch.</desc>
    <g id="Page-1" stroke="none" stroke-width="1" fill="none" fill-rule="evenodd">
        <g id="dribbble_dark2" fill="#FDFDFD" fill-rule="nonzero">
            <path d="M340.531,245.484 C335.906,233.046 330.906,220.609 325.781,208.171 C400.406,172.608 448.656,131.921 467.781,114.046 C493.031,151.609 508.406,196.296 510.656,244.421 C446.531,235.297 390.031,236.922 340.531,245.484 Z M299,149.109 C270.813,92.047 237.594,40.734 199.375,7.172 C217.438,3.109 236.125,0.734 255.406,0.734 C318.312,0.734 375.781,23.547 420.406,61.172 C385.281,100.297 343.031,128.609 299,149.109 Z M6,200.547 C22,128.922 68.031,68.609 130.156,33.547 C146.656,54.297 185.656,105.672 226.375,176.11 C127.375,204.672 34,202.172 6,200.547 Z M258.563,235.672 C263.063,244.61 267.438,253.735 271.813,263.047 C156.75,302.484 90.656,379.516 61.281,422.516 C25.875,381.141 3.406,328.141 0.344,270.109 C101.656,276.109 188.125,259.922 258.563,235.672 Z M298.75,325.766 C319.5,379.141 336.156,436.766 344.531,496.016 C316.687,506.391 286.812,512.266 255.406,512.266 C204.687,512.266 157.5,497.391 117.781,471.891 C172.75,389.266 237.5,346.516 298.75,325.766 Z M502.531,321.766 C487.406,379.016 452.906,428.516 406.281,462.641 C398.406,429.016 384.031,373.266 363.656,311.11 C425.781,303.547 477.906,314.672 502.531,321.766 Z" id="Shape"></path>
        </g>
    </g>
</svg>