<?xml version="1.0" ?><!DOCTYPE svg  PUBLIC '-//W3C//DTD SVG 1.1//EN'  'http://www.w3.org/Graphics/SVG/1.1/DTD/svg11.dtd'><svg enable-background="new 0 0 512 512" height="512px" id="Layer_1" version="1.1" viewBox="0 0 512 512" width="512px" xml:space="preserve" xmlns="http://www.w3.org/2000/svg" xmlns:xlink="http://www.w3.org/1999/xlink"><g><path d="M340.531,244.484c-4.625-12.438-9.625-24.875-14.75-37.313c74.625-35.563,122.875-76.25,142-94.125   c25.25,37.563,40.625,82.25,42.875,130.375C446.531,234.297,390.031,235.922,340.531,244.484z M299,148.109   C270.813,91.047,237.594,39.734,199.375,6.172c18.063-4.063,36.75-6.438,56.031-6.438c62.906,0,120.375,22.813,165,60.438   C385.281,99.297,343.031,127.609,299,148.109z M6,199.547c16-71.625,62.031-131.938,124.156-167   c16.5,20.75,55.5,72.125,96.219,142.563C127.375,203.672,34,201.172,6,199.547z M258.563,234.672   c4.5,8.938,8.875,18.063,13.25,27.375C156.75,301.484,90.656,378.516,61.281,421.516C25.875,380.141,3.406,327.141,0.344,269.109   C101.656,275.109,188.125,258.922,258.563,234.672z M298.75,324.766c20.75,53.375,37.406,111,45.781,170.25   c-27.844,10.375-57.719,16.25-89.125,16.25c-50.719,0-97.906-14.875-137.625-40.375C172.75,388.266,237.5,345.516,298.75,324.766z    M502.531,320.766c-15.125,57.25-49.625,106.75-96.25,140.875c-7.875-33.625-22.25-89.375-42.625-151.531   C425.781,302.547,477.906,313.672,502.531,320.766z"/></g></svg>