<?xml version="1.0" encoding="UTF-8"?>
<svg width="50px" height="50px" viewBox="0 0 50 50" version="1.1" xmlns="http://www.w3.org/2000/svg" xmlns:xlink="http://www.w3.org/1999/xlink">
    <!-- Generator: Sketch 48.2 (47327) - http://www.bohemiancoding.com/sketch -->
    <title>linkedin</title>
    <desc>Created with Sketch.</desc>
    <defs></defs>
    <g id="Page-1" stroke="none" stroke-width="1" fill="none" fill-rule="evenodd">
        <g id="linkedin" fill-rule="nonzero">
            <path d="M27.0444444,22.0444444 C27.0444444,21.9444444 26.9444444,22.0444444 27.0444444,22.0444444 Z" id="Shape" fill="#2B2B2B"></path>
            <path d="M46.3636364,0 L3.73737374,0 C1.71717172,0 0,1.6064257 0,3.61445783 L0,46.3855422 C0,48.3935743 1.61616162,50 3.73737374,50 L46.2626263,50 C48.2828283,50 50,48.3935743 50,46.3855422 L50,3.51405622 C50,1.6064257 48.3838384,0 46.3636364,0 Z M15.2525253,41.7670683 L7.67676768,41.7670683 L7.67676768,19.1767068 L15.2525253,19.1767068 L15.2525253,41.7670683 Z M11.4141414,16.1646586 C8.78787879,16.1646586 7.17171717,14.4578313 7.17171717,12.248996 C7.17171717,10.0401606 8.88888889,8.33333333 11.4141414,8.33333333 C14.040404,8.33333333 15.5555556,10.0401606 15.6565657,12.248996 C15.7575758,14.4578313 14.040404,16.1646586 11.4141414,16.1646586 Z M42.4242424,41.7670683 L34.8484848,41.7670683 L34.8484848,29.7188755 C34.8484848,26.7068273 33.7373737,24.5983936 31.010101,24.5983936 C28.8888889,24.5983936 27.6767677,26.0040161 27.1717172,27.3092369 C26.969697,27.811245 26.969697,28.4136546 26.969697,29.1164659 L26.969697,41.6666667 L19.3939394,41.6666667 C19.3939394,41.6666667 19.4949495,21.184739 19.3939394,19.0763052 L26.969697,19.0763052 L26.969697,22.3895582 C27.979798,20.8835341 29.7979798,18.6746988 33.7373737,18.6746988 C38.6868687,18.6746988 42.4242424,21.8875502 42.4242424,28.815261 L42.4242424,41.7670683 Z" id="Shape" fill="#FFFFFF"></path>
        </g>
    </g>
</svg>