<?xml version="1.0" encoding="UTF-8"?>
<svg width="42px" height="49px" viewBox="0 0 42 49" version="1.1" xmlns="http://www.w3.org/2000/svg" xmlns:xlink="http://www.w3.org/1999/xlink">
    <!-- Generator: Sketch 63.1 (92452) - https://sketch.com -->
    <title>Group 2</title>
    <desc>Created with Sketch.</desc>
    <g id="Page-1" stroke="none" stroke-width="1" fill="none" fill-rule="evenodd">
        <g id="Group-2" transform="translate(-1.000000, 0.000000)">
            <path d="M26.5039233,46 C28.3661726,46 30.1185702,45.6443515 31.761116,44.9330544 C33.4036617,44.2217573 34.836966,43.2541841 36.0610288,42.0303347 C37.2850915,40.8064854 38.2476024,39.3786611 38.9485615,37.7468619 C39.6495205,36.1150628 40,34.3682008 40,32.5062762 C40,30.6443515 39.6495205,28.8922594 38.9485615,27.25 C38.2476024,25.6077406 37.2850915,24.1746862 36.0610288,22.9508368 C34.836966,21.7269874 33.4036617,20.7646444 31.761116,20.0638075 C30.1185702,19.3629707 28.3661726,19.0125523 26.5039233,19.0125523 L17.4960767,19.0125523 C16.8683522,19.0125523 16.282476,18.8974895 15.7384481,18.667364 C15.1944202,18.4372385 14.7183958,18.1182008 14.3103749,17.710251 C13.902354,17.3023013 13.5832607,16.8211297 13.353095,16.2667364 C13.1229294,15.7123431 13.0078466,15.1213389 13.0078466,14.4937238 C13.0078466,13.8661088 13.1229294,13.2803347 13.353095,12.7364017 C13.5832607,12.1924686 13.902354,11.7165272 14.3103749,11.3085774 C14.7183958,10.9006276 15.1944202,10.58159 15.7384481,10.3514644 C16.282476,10.1213389 16.8683522,10.0062762 17.4960767,10.0062762 L40,9.98461914 L40,0.97834299 L17.4960767,1 C15.6338274,1 13.8866609,1.35564854 12.2545772,2.06694561 C10.6224935,2.77824268 9.19442023,3.7458159 7.97035745,4.96966527 C6.74629468,6.19351464 5.77855275,7.62133891 5.06713165,9.25313808 C4.35571055,10.8849372 4,12.6317992 4,14.4937238 C4,16.3556485 4.35571055,18.1077406 5.06713165,19.75 C5.77855275,21.3922594 6.74629468,22.8253138 7.97035745,24.0491632 C9.19442023,25.2730126 10.6224935,26.2405858 12.2545772,26.9518828 C13.8866609,27.6631799 15.6338274,28.0188285 17.4960767,28.0188285 L26.5039233,28.0188285 C27.1316478,28.0188285 27.717524,28.1338912 28.2615519,28.3640167 C28.8055798,28.5941423 29.2816042,28.9131799 29.6896251,29.3211297 C30.097646,29.7290795 30.4167393,30.2050209 30.646905,30.748954 C30.8770706,31.292887 30.9921534,31.8786611 30.9921534,32.5062762 C30.9921534,33.1338912 30.8770706,33.7196653 30.646905,34.2635983 C30.4167393,34.8075314 30.097646,35.2834728 29.6896251,35.6914226 C29.2816042,36.0993724 28.8055798,36.41841 28.2615519,36.6485356 C27.717524,36.8786611 27.1316478,36.9937238 26.5039233,36.9937238 L6.51089799,36.9937238 L6.51089799,46 L26.5039233,46 Z" id="S" fill="#3E3E3E" fill-rule="nonzero"></path>
            <polygon id="F" fill="#3E3E3E" fill-rule="nonzero" points="12.9847971 45.9983546 13.0490186 27.9915535 28.0351464 28.0473151 28.0216068 18.9872388 12.9948603 19.0203301 13.069145 10.065561 37 9.99864709 36.9769461 1 18.0217285 1 8.29382324 6.01159668 4 16.0480957 4 46"></polygon>
            <rect id="Rectangle-Copy" fill="#FFFFFF" x="13" y="34" width="3" height="15"></rect>
            <path d="M3.98885325,33.993 L3.98885325,49 L3.43800521,49 L3.43800521,33.9937238 L3.98885325,33.993 Z M4.00819071,16.0001787 C4.1499725,17.307989 4.47946878,18.5579294 4.99667954,19.75 C5.70921637,21.3922594 6.67847604,22.8253138 7.90445854,24.0491632 C9.13044104,25.2730126 10.560754,26.2405858 12.1953973,26.9518828 C13.8300406,27.6631799 15.5799473,28.0188285 17.4451172,28.0188285 L26.467091,28.0188285 C27.0958,28.0188285 27.682595,28.1338912 28.2274761,28.3640167 C28.7723572,28.5941423 29.2491282,28.9131799 29.657789,29.3211297 C30.0664499,29.7290795 30.3860436,30.2050209 30.6165702,30.748954 C30.651689,30.8318175 30.6841327,30.9156521 30.7139014,31.0004577 L16.6787029,31.0021137 C14.6719865,30.9140065 12.7779815,30.4779195 10.9949369,29.7020473 C9.00747565,28.8372254 7.27032549,27.6584044 5.77999651,26.1706684 C4.28868082,24.6819475 3.10649283,22.9406221 2.23955801,20.9425053 C1.56005452,19.3763813 1.14155595,17.7292771 0.98885325,16.0001805 L4.00819071,16.0001787 Z M26.4308533,16 L26.467091,16.0125523 C28.7506952,16.0125523 30.8981713,16.4466953 32.9117157,17.3044835 C34.9188756,18.1595518 36.6681803,19.3364667 38.1636472,20.8293316 C39.6591661,22.3222484 40.8381616,24.0685762 41.6947495,26.072312 C42.3623182,27.633893 42.7737658,29.2761621 42.9241667,31.000147 L39.9052296,31.0001111 C39.7655498,29.6921957 39.4408888,28.4421587 38.9312464,27.25 C38.2291881,25.6077406 37.2651676,24.1746862 36.0391851,22.9508368 C34.8132026,21.7269874 33.3776505,20.7646444 31.7325287,20.0638075 C30.0874068,19.3629707 28.332261,19.0125523 26.467091,19.0125523 L17.4451172,19.0125523 C16.8164083,19.0125523 16.2296132,18.8974895 15.6847321,18.667364 C15.139851,18.4372385 14.66308,18.1182008 14.2544192,17.710251 C13.8457583,17.3023013 13.5261646,16.8211297 13.295638,16.2667364 C13.259182,16.1790634 13.2256086,16.0904748 13.1949178,16.0009706 L26.4308533,16 Z" id="Combined-Shape" fill="#FFFFFF" fill-rule="nonzero"></path>
        </g>
    </g>
</svg>