<?xml version="1.0" encoding="UTF-8"?>
<svg width="48px" height="36px" viewBox="0 0 48 36" version="1.1" xmlns="http://www.w3.org/2000/svg" xmlns:xlink="http://www.w3.org/1999/xlink">
    <!-- Generator: Sketch 63.1 (92452) - https://sketch.com -->
    <title>Combined Shape</title>
    <desc>Created with Sketch.</desc>
    <g id="Page-1" stroke="none" stroke-width="1" fill="none" fill-rule="evenodd">
        <path d="M10.4,0.000597811222 C9.10855943,0.0342223797 0,0.0342223797 0,10.954597 C0,21.8749715 8.98308105,20.6652319 10.4,20.8001196 L17.6,20.8001196 C18.4395508,20.8001196 21.647572,20.8001196 21.647572,25.7804621 C21.647572,30.7608046 17.9665961,30.4001196 17.6,30.4001196 C17.3556026,30.4001196 11.4889359,30.4001196 0,30.4001196 L0,35.9896347 L17.6,35.9896347 C19.6668675,35.9256394 27.2258789,35.932542 27.2258789,25.2914282 C27.2258789,14.6503143 19.0081313,15.2001196 17.6,15.2001196 L10.4,15.2001196 C9.90178418,15.2055064 5.6,15.1444163 5.6,10.4001196 C5.6,5.6558228 9.83128614,5.59416758 10.4,5.60011956 C10.9687139,5.60607155 16.5250203,5.67024104 27.9717277,5.6558228 C32.6796507,5.6518825 36.1945291,7.43981392 38.5438246,9.35880162 C40.9321455,11.3096667 42.1557981,14.2273048 42.1557981,18.143691 C42.1557981,22.0006579 40.9695581,24.9302519 38.6378889,26.9779742 C36.3965575,28.9463597 33.065716,30.104122 28.5521789,30.5695245 C28.2835938,31.9001196 26.6046875,35.6333227 23.8510227,36.0001197 L30.3938886,35.9996749 C31.6006269,35.9985448 38.6571389,35.941161 43.4684899,31.1319917 C46.0752524,28.5264113 48,24.5218198 48,18.3999064 C48,12.2993144 46.1319849,8.30056052 43.5947153,5.69337831 C39.0365702,1.00963681 33.6970703,0.000597811222 27.9717277,0.000597811222 L10.4,0.000597811222 Z M27.2246094,8.03615472 L21.574707,8.03615472 L21.574707,13.1973852 C23.153125,13.6011938 26.3644531,15.3084203 27.2246094,16.8128149 L27.2246094,8.03615472 Z" id="Combined-Shape" fill="#FDFDFD" fill-rule="nonzero"></path>
    </g>
</svg>