<?xml version="1.0" encoding="UTF-8"?>
<svg width="46px" height="36px" viewBox="0 0 46 36" version="1.1" xmlns="http://www.w3.org/2000/svg" xmlns:xlink="http://www.w3.org/1999/xlink">
    <!-- Generator: Sketch 48.2 (47327) - http://www.bohemiancoding.com/sketch -->
    <title>Group</title>
    <desc>Created with Sketch.</desc>
    <defs></defs>
    <g id="Desktop-HD" stroke="none" stroke-width="1" fill="none" fill-rule="evenodd" transform="translate(-59.000000, -34.000000)">
        <g id="sc_logo" transform="translate(59.000000, 34.000000)" fill="#FFFFFF" fill-rule="nonzero">
            <g id="Group">
                <g transform="translate(17.000000, 0.000000)" id="Shape">
                    <path d="M26.8,28.3 C26.6,28.1 26.4,28 26.1,28 C25.8,28 25.6,28.1 25.3,28.4 C24.7,28.9 24.1,29.4 23.5,29.8 C22.9,30.2 22.3,30.5 21.6,30.8 C20.9,31.1 20.2,31.2 19.4,31.4 C18.6,31.5 17.7,31.6 16.7,31.6 C15,31.6 13.5,31.3 12.1,30.7 C10.9,30.2 9.9,29.5 9,28.7 C8.8,29.3 8.7,29.9 8.4,30.5 C8.1,31.3 7.7,32.1 7.2,32.9 C8,33.4 8.9,33.9 9.8,34.3 C11.8,35.1 14,35.6 16.5,35.6 C19.3,35.6 21.7,35.2 23.7,34.2 C25.7,33.3 27.4,32 28.8,30.4 L26.8,28.3 Z"></path>
                    <path d="M5.2,5.3 C5.1,5.4 5,5.5 4.9,5.5 C4.6,5.8 4.3,6.2 4,6.5 C3.7,6.9 3.4,7.3 3.1,7.7 L2.8,8.1 C2.3,9 1.8,9.9 1.4,10.9 C1.1,11.5 0.9,12.2 0.8,12.9 C1.2,13 1.5,13.2 1.9,13.3 C3.1,13.8 4.1,14.5 5.1,15.3 C5.2,14.3 5.5,13.3 5.8,12.3 C6.4,10.6 7.3,9.2 8.3,8.1 C9.3,7 10.7,6.1 12.2,5.4 C13.7,4.8 15.4,4.5 17.2,4.5 C18.2,4.5 19.1,4.6 19.9,4.7 C20.7,4.9 21.4,5 21.9,5.3 C22.5,5.5 23,5.8 23.4,6 C23.8,6.3 24.2,6.5 24.5,6.7 C24.8,6.9 25.1,7.1 25.3,7.3 C25.5,7.4 25.7,7.5 26,7.5 C26.3,7.5 26.5,7.4 26.6,7.3 C26.7,7.2 26.9,7.1 27,6.9 L28.5,4.8 C27.1,3.5 25.5,2.4 23.7,1.6 C21.9,0.8 19.7,0.4 17.2,0.4 C14.7,0.4 12.4,0.8 10.3,1.7 C8.4,2.5 6.7,3.6 5.2,5 L5.2,5.3 Z"></path>
                </g>
                <path d="M19.5,19.2608696 C18.7,18.5507246 17.9,18.0434783 16.9,17.6376812 C15.9,17.2318841 14.9,16.826087 13.9,16.4202899 C12.9,16.115942 11.9,15.7101449 10.9,15.4057971 C9.9,15.1014493 9.1,14.6956522 8.3,14.2898551 C7.5,13.884058 6.9,13.2753623 6.4,12.6666667 C5.9,12.057971 5.7,11.2463768 5.7,10.2318841 C5.7,9.52173913 5.8,8.8115942 6.1,8.10144928 C6.4,7.39130435 6.8,6.88405797 7.3,6.37681159 C7.8,5.86956522 8.5,5.46376812 9.3,5.26086957 C10.1,4.95652174 11,4.85507246 12,4.85507246 C13.1,4.85507246 14,4.95652174 14.8,5.26086957 C15.4,5.46376812 15.9,5.66666667 16.4,5.97101449 C17.1,4.95652174 17.8,3.94202899 18.7,3.13043478 C18.8,3.02898551 18.9,2.92753623 19,2.82608696 C18.4,2.52173913 17.8,2.11594203 17.2,1.91304348 C15.6,1.30434783 13.9,1 12,1 C10.3,1 8.8,1.30434783 7.5,1.8115942 C6.2,2.2173913 5.1,2.92753623 4.2,3.84057971 C3.3,4.75362319 2.6,5.76811594 2.2,6.88405797 C1.7,8 1.5,9.2173913 1.5,10.4347826 C1.5,11.9565217 1.7,13.2753623 2.2,14.2898551 C2.7,15.3043478 3.3,16.2173913 4,16.826087 C4.8,17.5362319 5.6,18.0434783 6.6,18.5507246 C7.6,18.9565217 8.6,19.3623188 9.6,19.6666667 C10.6,19.9710145 11.6,20.2753623 12.6,20.5797101 C13.6,20.884058 14.4,21.2898551 15.2,21.6956522 C16,22.1014493 16.6,22.7101449 17,23.3188406 C17.5,24.0289855 17.7,24.8405797 17.7,25.8550725 C17.7,26.7681159 17.5,27.6811594 17.2,28.3913043 C16.9,29.2028986 16.4,29.8115942 15.8,30.4202899 C15.2,30.9275362 14.5,31.4347826 13.6,31.7391304 C12.7,32.0434783 11.8,32.1449275 10.7,32.1449275 C9.4,32.1449275 8.3,31.942029 7.4,31.6376812 C6.5,31.2318841 5.7,30.9275362 5.1,30.4202899 C4.5,30.0144928 3.9,29.6086957 3.5,29.2028986 C3.1,28.7971014 2.7,28.6956522 2.4,28.6956522 C2.2,28.6956522 2,28.7971014 1.8,28.8985507 C1.6,29 1.5,29.2028986 1.3,29.3043478 L0,31.5362319 C1.3,32.9565217 2.8,33.9710145 4.6,34.7826087 C6.4,35.5942029 8.4,36 10.6,36 C12.4,36 14,35.6956522 15.4,35.1884058 C16.8,34.5797101 18,33.8695652 19,32.8550725 C20,31.8405797 20.7,30.7246377 21.2,29.4057971 C21.7,28.0869565 22,26.6666667 22,25.1449275 C22,23.7246377 21.8,22.5072464 21.3,21.4927536 C20.8,20.7826087 20.2,19.8695652 19.5,19.2608696 Z" id="Shape"></path>
            </g>
        </g>
    </g>
</svg>