<?xml version="1.0" encoding="UTF-8"?>
<svg width="46px" height="36px" viewBox="0 0 46 36" version="1.1" xmlns="http://www.w3.org/2000/svg" xmlns:xlink="http://www.w3.org/1999/xlink">
    <!-- Generator: Sketch 48.2 (47327) - http://www.bohemiancoding.com/sketch -->
    <title>Group</title>
    <desc>Created with Sketch.</desc>
    <defs></defs>
    <g id="Page-1" stroke="none" stroke-width="1" fill="none" fill-rule="evenodd">
        <g id="sc_logo" transform="translate(-295.000000, -357.000000)" fill="#2B2B2B" fill-rule="nonzero">
            <g id="Group" transform="translate(295.000000, 357.000000)">
                <g transform="translate(17.000000, 0.000000)" id="Shape">
                    <path d="M26.8,28.3 C26.6,28.1 26.4,28 26.1,28 C25.8,28 25.6,28.1 25.3,28.4 C24.7,28.9 24.1,29.4 23.5,29.8 C22.9,30.2 22.3,30.5 21.6,30.8 C20.9,31.1 20.2,31.2 19.4,31.4 C18.6,31.5 17.7,31.6 16.7,31.6 C15,31.6 13.5,31.3 12.1,30.7 C10.9,30.2 9.9,29.5 9,28.7 C8.8,29.3 8.7,29.9 8.4,30.5 C8.1,31.3 7.7,32.1 7.2,32.9 C8,33.4 8.9,33.9 9.8,34.3 C11.8,35.1 14,35.6 16.5,35.6 C19.3,35.6 21.7,35.2 23.7,34.2 C25.7,33.3 27.4,32 28.8,30.4 L26.8,28.3 Z"></path>
                    <path d="M5.2,5.3 C5.1,5.4 5,5.5 4.9,5.5 C4.6,5.8 4.3,6.2 4,6.5 C3.7,6.9 3.4,7.3 3.1,7.7 L2.8,8.1 C2.3,9 1.8,9.9 1.4,10.9 C1.1,11.5 0.9,12.2 0.8,12.9 C1.2,13 1.5,13.2 1.9,13.3 C3.1,13.8 4.1,14.5 5.1,15.3 C5.2,14.3 5.5,13.3 5.8,12.3 C6.4,10.6 7.3,9.2 8.3,8.1 C9.3,7 10.7,6.1 12.2,5.4 C13.7,4.8 15.4,4.5 17.2,4.5 C18.2,4.5 19.1,4.6 19.9,4.7 C20.7,4.9 21.4,5 21.9,5.3 C22.5,5.5 23,5.8 23.4,6 C23.8,6.3 24.2,6.5 24.5,6.7 C24.8,6.9 25.1,7.1 25.3,7.3 C25.5,7.4 25.7,7.5 26,7.5 C26.3,7.5 26.5,7.4 26.6,7.3 C26.7,7.2 26.9,7.1 27,6.9 L28.5,4.8 C27.1,3.5 25.5,2.4 23.7,1.6 C21.9,0.8 19.7,0.4 17.2,0.4 C14.7,0.4 12.4,0.8 10.3,1.7 C8.4,2.5 6.7,3.6 5.2,5 L5.2,5.3 Z"></path>
                </g>
                <path d="M19.9,18.7 C19.1,18 18.3,17.5 17.3,17.1 C16.3,16.7 15.3,16.3 14.3,15.9 C13.3,15.6 12.3,15.2 11.3,14.9 C10.3,14.6 9.5,14.2 8.7,13.8 C7.9,13.4 7.3,12.8 6.8,12.2 C6.3,11.6 6.1,10.8 6.1,9.8 C6.1,9.1 6.2,8.4 6.5,7.7 C6.8,7 7.2,6.5 7.7,6 C8.2,5.5 8.9,5.1 9.7,4.9 C10.5,4.6 11.4,4.5 12.4,4.5 C13.5,4.5 14.4,4.6 15.2,4.9 C15.8,5.1 16.3,5.3 16.8,5.6 C17.5,4.6 18.2,3.6 19.1,2.8 C19.2,2.7 19.3,2.6 19.4,2.5 C18.8,2.2 18.2,1.8 17.6,1.6 C16,1 14.3,0.7 12.4,0.7 C10.7,0.7 9.2,1 7.9,1.5 C6.6,1.9 5.5,2.6 4.6,3.5 C3.7,4.4 3,5.4 2.6,6.5 C2.1,7.6 1.9,8.8 1.9,10 C1.9,11.5 2.1,12.8 2.6,13.8 C3.1,14.8 3.7,15.7 4.4,16.3 C5.2,17 6,17.5 7,18 C8,18.4 9,18.8 10,19.1 C11,19.4 12,19.7 13,20 C14,20.3 14.8,20.7 15.6,21.1 C16.4,21.5 17,22.1 17.4,22.7 C17.9,23.4 18.1,24.2 18.1,25.2 C18.1,26.1 17.9,27 17.6,27.7 C17.3,28.5 16.8,29.1 16.2,29.7 C15.6,30.2 14.9,30.7 14,31 C13.1,31.3 12.2,31.4 11.1,31.4 C9.8,31.4 8.7,31.2 7.8,30.9 C6.9,30.5 6.1,30.2 5.5,29.7 C4.9,29.3 4.3,28.9 3.9,28.5 C3.5,28.1 3.1,28 2.8,28 C2.6,28 2.4,28.1 2.2,28.2 C2,28.3 1.9,28.5 1.7,28.6 L0.4,30.8 C1.7,32.2 3.2,33.2 5,34 C6.8,34.8 8.8,35.2 11,35.2 C12.8,35.2 14.4,34.9 15.8,34.4 C17.2,33.8 18.4,33.1 19.4,32.1 C20.4,31.1 21.1,30 21.6,28.7 C22.1,27.4 22.4,26 22.4,24.5 C22.4,23.1 22.2,21.9 21.7,20.9 C21.2,20.2 20.6,19.3 19.9,18.7 Z" id="Shape"></path>
            </g>
        </g>
    </g>
</svg>