<?xml version="1.0" encoding="UTF-8"?>
<svg width="50px" height="41px" viewBox="0 0 50 41" version="1.1" xmlns="http://www.w3.org/2000/svg" xmlns:xlink="http://www.w3.org/1999/xlink">
    <!-- Generator: Sketch 48.2 (47327) - http://www.bohemiancoding.com/sketch -->
    <title>Shape</title>
    <desc>Created with Sketch.</desc>
    <defs></defs>
    <g id="Page-1" stroke="none" stroke-width="1" fill="none" fill-rule="evenodd">
        <g id="twitter_dark" fill="#FFFFFF" fill-rule="nonzero">
            <path d="M49.8,5.1 C48,5.9 46,6.4 44,6.7 C46.1,5.5 47.7,3.5 48.4,1.1 C46.4,2.3 44.3,3.1 42,3.6 C40.2,1.6 37.5,0.4 34.6,0.4 C29,0.4 24.5,4.9 24.5,10.5 C24.5,11.3 24.6,12.1 24.8,12.8 C16.4,12.3 9,8.3 4,2.2 C3.1,3.7 2.6,5.4 2.6,7.3 C2.6,10.8 4.4,13.9 7.1,15.7 C5.4,15.6 3.9,15.2 2.5,14.4 C2.5,14.4 2.5,14.5 2.5,14.5 C2.5,19.4 6,23.5 10.6,24.4 C9.8,24.6 8.9,24.8 7.9,24.8 C7.2,24.8 6.6,24.7 6,24.6 C7.3,28.6 11,31.5 15.4,31.6 C12.1,34.3 7.7,36 3,36 C2.2,36 1.4,36 0.6,35.9 C5.1,38.8 10.4,40.4 16.1,40.4 C34.7,40.4 44.9,25 44.9,11.6 C44.9,11.2 44.9,10.7 44.9,10.3 C46.8,8.9 48.5,7.1 49.8,5.1 Z" id="Shape"></path>
        </g>
    </g>
</svg>