<svg width="484" height="117" viewBox="0 0 484 117" fill="none" xmlns="http://www.w3.org/2000/svg">
<g clip-path="url(#clip0)">
<path d="M156.818 66.3978L164.694 43.0817L172.57 66.3978H156.818ZM159.391 30.9168L139.974 86.9065H150.112L153.699 76.1453H175.689L179.276 86.9065H189.803L170.386 30.9168H159.391Z" fill="black"/>
<path d="M219.358 76.0673C217.954 77.8608 215.849 79.2645 212.807 79.2645C205.165 79.2645 203.606 72.0903 203.606 66.2418C203.606 60.3933 205.165 53.1412 212.807 53.1412C215.849 53.1412 217.954 54.5448 219.358 56.3383C221.385 58.9897 221.931 62.7327 221.931 66.2418C221.931 69.7509 221.385 73.416 219.358 76.0673ZM224.582 48.3844C222.087 46.3569 218.812 44.9532 214.757 44.9532C210.312 44.9532 205.789 46.6688 203.372 50.4118L202.748 46.045H194.716V100.943H204.386V83.5534C205.477 85.8148 210 87.5303 214.835 87.5303C218.968 87.5303 222.165 86.2827 224.66 84.2552C229.495 80.2782 231.835 74.1178 231.835 66.1638C231.913 58.4438 229.417 52.3614 224.582 48.3844Z" fill="black"/>
<path d="M261.545 76.0673C260.141 77.8608 258.036 79.2645 254.995 79.2645C247.353 79.2645 245.793 72.0903 245.793 66.2418C245.793 60.3933 247.353 53.1412 254.995 53.1412C258.036 53.1412 260.141 54.5448 261.545 56.3383C263.572 58.9897 264.118 62.7327 264.118 66.2418C264.118 69.7509 263.572 73.416 261.545 76.0673ZM266.77 48.3844C264.274 46.3569 260.999 44.9532 256.944 44.9532C252.499 44.9532 247.976 46.6688 245.559 50.4118L244.935 46.045H236.669V100.943H246.339V83.4754C248.522 85.7368 252.031 87.4524 256.866 87.4524C260.999 87.4524 264.274 86.2047 266.77 84.1772C271.604 80.2002 274.022 74.0398 274.022 66.0858C274.022 58.4438 271.604 52.3614 266.77 48.3844Z" fill="black"/>
<path d="M314.104 68.5812L290.787 30.9168H279.636V86.9065H290.398V48.4623L313.948 86.9065H324.865V30.9168H314.104V68.5812Z" fill="black"/>
<path d="M341.319 55.7925C342.722 53.921 345.14 52.6733 348.103 52.6733C350.91 52.6733 352.938 53.609 354.263 55.0127C355.823 56.7282 356.681 58.9117 356.759 62.1089H339.213C339.291 58.9117 339.915 57.586 341.319 55.7925ZM354.185 77.5489C352.782 78.9526 351.066 79.5764 348.259 79.5764C345.607 79.5764 343.658 78.7186 342.254 77.3929C340.305 75.5214 339.213 71.8564 339.291 69.7509H366.428C366.428 68.6592 366.506 66.7877 366.506 66.7877C366.662 61.719 365.96 56.9622 362.997 52.5173C359.644 47.4486 354.185 44.9532 348.181 44.9532C342.644 44.9532 338.277 46.9807 335.236 50.0999C331.337 54.0769 329.388 59.8475 329.388 66.3198C329.388 72.9481 331.571 78.6406 335.626 82.5396C338.823 85.5808 342.878 87.5303 348.415 87.5303C353.561 87.5303 358.63 85.7368 362.061 81.6818C363.621 79.8103 365.258 77.315 365.492 74.0398H356.135C355.745 76.1453 355.043 76.6911 354.185 77.5489Z" fill="black"/>
<path d="M395.359 45.967L386.547 59.0676L377.501 45.967H366.272L380.543 66.0858L366.35 86.9065H377.033L385.923 73.338L394.969 86.9065H405.964L392.084 66.1638L406.042 45.967H395.359Z" fill="black"/>
<path d="M434.661 67.3335C434.661 70.6087 433.959 74.2738 431.619 76.4572C430.45 77.6269 428.89 78.4847 426.629 78.4847C421.482 78.4847 419.611 75.5214 419.611 70.7646V46.045H409.941V72.9481C409.941 81.6039 415.322 87.4524 423.977 87.4524C429.124 87.4524 433.647 85.3469 435.596 81.3699L436.298 86.9065H444.486V46.045H434.817V67.3335H434.661Z" fill="black"/>
<path d="M473.027 62.4208C469.05 61.797 468.036 61.719 464.371 61.2511C462.188 60.9392 459.692 60.0814 459.692 57.1961C459.692 55.0907 461.096 53.609 462.812 52.9072C464.293 52.2834 465.619 52.2834 467.022 52.2834C469.05 52.2834 471.155 52.9072 472.325 54.0769C473.261 55.0907 473.963 56.7282 473.963 57.82H483.242C483.242 54.6228 481.839 51.8935 479.655 49.5541C476.692 46.3569 471.779 44.7973 466.944 44.7973C461.876 44.7973 457.587 46.2789 454.624 48.8522C452.206 50.9577 450.491 53.843 450.491 57.9759C450.491 63.1226 454.234 67.6454 459.77 68.8151C463.357 69.5949 467.412 69.8289 470.999 70.3747C473.495 70.7646 475.054 72.3242 475.054 74.6636C475.054 79.1085 470.064 79.8103 466.788 79.8103C463.981 79.8103 462.188 79.0305 460.628 77.7828C459.38 76.7691 458.445 74.9756 458.445 72.7921H449.321C449.321 77.081 451.27 80.2002 453.61 82.4616C456.963 85.6588 461.564 87.2184 466.711 87.2184C472.247 87.2184 477.316 85.8928 480.591 82.6176C482.696 80.5122 484.1 77.6269 484.1 73.7279C484.1 67.4115 479.421 63.4345 473.027 62.4208Z" fill="black"/>
<path d="M111.901 30.9168V3H83.9065C83.9065 18.3621 96.4613 30.9168 111.901 30.9168Z" fill="#FF8700"/>
<path d="M111.901 40.6643C91.1586 40.6643 74.237 23.7427 74.237 3H37.5864C37.8203 22.7289 45.6183 41.2882 59.6547 55.2466C73.6131 69.205 92.1724 77.0031 111.901 77.237V40.6643Z" fill="#FF8700"/>
<path d="M83.9065 114.901H111.901V86.9065C98.9566 86.9065 86.7138 83.8653 75.7966 78.6406C81.0212 89.5578 83.9065 101.879 83.9065 114.901Z" fill="#FF8700"/>
<path d="M27.9169 114.901C27.9169 99.4613 15.44 86.9845 0 86.9065V114.901H27.9169Z" fill="#FF8700"/>
<path d="M0 40.6643V77.159C20.7427 77.159 37.6644 94.1586 37.6644 114.901H74.315C74.081 95.1724 66.283 76.6131 52.3246 62.6547C38.2882 48.6963 19.651 40.8203 0 40.6643Z" fill="#FF8700"/>
<path d="M27.9169 3H0V30.9948C12.8667 30.9948 25.1875 34.036 36.1827 39.2607C30.8801 28.2655 27.9169 15.9447 27.9169 3Z" fill="#FF8700"/>
</g>
<defs>
<clipPath id="clip0">
<rect width="484" height="117" fill="white"/>
</clipPath>
</defs>
</svg>
