<svg width="483" height="107" viewBox="0 0 483 107" fill="none" xmlns="http://www.w3.org/2000/svg">
<path d="M51.0397 31.2806H24.8598L22.3974 45.2283H46.5837L44.3994 57.4605H20.2131L15.9478 82.1153H2L13.0963 18.9531H53.216L51.0397 31.2806Z" fill="#2A3134"/>
<path d="M153.662 82.1153H136.498L122.359 38.7787L114.869 82.1153H101.215L112.311 18.9531H129.285L143.13 64.768L151.192 18.9531H164.759L153.662 82.1153Z" fill="#2A3134"/>
<path d="M216.07 31.2806H199.001L190.081 82.1153H176.046L184.957 31.2806H167.888L170.072 18.9531H218.254L216.07 31.2806Z" fill="#2A3134"/>
<path d="M262.83 63.8069C260.932 74.4345 255.626 83.0685 236.372 83.0685C221.098 83.0685 214.926 75.3797 214.926 67.0396C214.927 65.9557 215.022 64.874 215.212 63.8069L223.084 18.9531H237.079L229.486 61.9164C229.304 62.8858 229.208 63.8692 229.2 64.8553C229.2 68.652 231.193 70.7331 237.834 70.7331C245.419 70.7331 248.159 67.6989 249.12 62.4804L256.801 18.9531H270.741L262.87 63.8069H262.83Z" fill="#2A3134"/>
<path d="M280.185 82.1153H266.245L277.342 18.9531H291.282L280.185 82.1153Z" fill="#2A3134"/>
<path d="M343.062 31.2806H325.992L317.08 82.1153H303.045L311.957 31.2806H294.888L297.064 18.9531H345.246L343.062 31.2806Z" fill="#2A3134"/>
<path d="M353.88 82.1153H339.94L351.036 18.9531H364.976L353.88 82.1153Z" fill="#2A3134"/>
<path d="M469.966 82.1153H452.801L438.671 38.7787L431.18 82.1153H417.519L428.615 18.9531H445.597L459.441 64.768L467.503 18.9531H481.07L469.966 82.1153Z" fill="#2A3134"/>
<path d="M404.341 47.4205L397.59 52.3293C397.336 52.5322 397.147 52.8052 397.047 53.1144C396.946 53.4236 396.939 53.7556 397.026 54.0689L399.607 62.0118C399.798 62.6076 399.544 62.8061 399.035 62.4248L392.284 57.5161C392.013 57.3374 391.695 57.2422 391.37 57.2422C391.046 57.2422 390.728 57.3374 390.457 57.5161L383.698 62.4248C383.197 62.7902 382.943 62.6076 383.134 62.0118L385.715 54.0689C385.801 53.7555 385.793 53.4239 385.693 53.1149C385.593 52.8059 385.405 52.5329 385.151 52.3293L378.4 47.4205C377.891 47.0551 377.987 46.7613 378.614 46.7613H386.962C387.286 46.7465 387.599 46.6371 387.861 46.4465C388.124 46.2559 388.325 45.9926 388.44 45.689L391.021 37.7461C391.212 37.1504 391.529 37.1504 391.72 37.7461L394.293 45.689C394.409 45.9933 394.612 46.2568 394.876 46.4474C395.139 46.6379 395.454 46.747 395.779 46.7613H404.127C404.746 46.7613 404.85 47.0551 404.341 47.4205Z" fill="#2A3134"/>
<path d="M396.47 18C378.638 18 371.426 25.4981 369.345 37.2536L364.785 63.3382C364.603 64.3072 364.51 65.2911 364.507 66.2772C364.467 70.301 365.997 74.182 368.773 77.0955C367.915 81.194 365.937 87.6198 361.759 89.2481H362.204C364.587 89.2481 376.207 88.9224 382.157 82.8937C383.3 83.0049 384.484 83.0923 385.755 83.0923C404.437 83.0923 411.546 75.8801 413.635 63.8307L418.186 38.04C418.371 37.1007 418.467 36.1459 418.472 35.1885C418.472 26.5386 411.45 18 396.47 18ZM415.072 37.3966L410.505 63.2588C409.52 68.9459 407.455 72.7902 404 75.4194C400.028 78.4297 394.055 79.8913 385.731 79.8913C384.632 79.888 383.535 79.827 382.443 79.7086L380.926 79.5577L379.861 80.6459C377.232 83.3226 373.046 84.6809 369.392 85.4116C370.514 82.9763 371.343 80.4168 371.863 77.7864L372.204 76.1502L371.045 74.9349C368.828 72.6188 367.612 69.5227 367.661 66.3168C367.662 65.5384 367.736 64.762 367.883 63.9976L372.45 37.8414C373.419 32.3608 375.54 28.4053 378.932 25.7682C382.856 22.7023 388.583 21.2169 396.446 21.2169C405.811 21.2169 415.271 25.5458 415.271 35.2044C415.269 35.9396 415.203 36.6732 415.072 37.3966Z" fill="#2A3134"/>
<path d="M88.2126 19.4297H69.1496L38.7996 82.5919H53.8912L59.5783 70.1692H81.1116L82.4381 82.5919H97.2358L88.2126 19.4297ZM64.7174 58.5884L77.1402 31.082L79.809 58.5884H64.7174Z" fill="#2A3134"/>
</svg>
