<svg width="286" height="58" viewBox="0 0 286 58" fill="none" xmlns="http://www.w3.org/2000/svg">
<path d="M59.6461 36.4886V52.0993C59.6249 53.3275 59.1515 54.5048 58.3164 55.4057C57.875 55.8927 57.3357 56.2811 56.7337 56.5452C56.1318 56.8093 55.4808 56.9433 54.8235 56.9384C53.5149 56.9336 52.2608 56.4135 51.333 55.4907C50.4146 54.5805 49.8919 53.345 49.8782 52.0521V35.8722C50.0311 33.3473 49.5301 30.8256 48.4234 28.551C47.8487 27.5919 47.0206 26.8099 46.0301 26.2911C45.0397 25.7723 43.9253 25.5369 42.8096 25.6107C41.6458 25.5819 40.4931 25.8431 39.4554 26.3708C38.4177 26.8986 37.5276 27.6762 36.8653 28.6336C35.6262 30.5194 34.9353 32.7122 34.8697 34.9677V52.1087C34.8401 53.3878 34.3173 54.6058 33.4107 55.5085C32.5041 56.4111 31.2837 56.9285 30.0046 56.9526C28.6959 56.948 27.4418 56.4278 26.5141 55.5049C25.6063 54.5907 25.0969 53.3546 25.0971 52.0662V35.8722C25.2589 33.342 24.742 30.8145 23.5997 28.551C23.0214 27.5953 22.1925 26.8162 21.203 26.2979C20.2134 25.7796 19.101 25.542 17.986 25.6107C16.8278 25.582 15.6809 25.8436 14.6496 26.3716C13.6184 26.8995 12.7356 27.6772 12.0818 28.6336C10.6713 30.8089 9.9601 33.3637 10.0437 35.9549V52.0591C10.0437 53.3601 9.52691 54.6078 8.60701 55.5277C7.6871 56.4476 6.43944 56.9644 5.1385 56.9644C3.83755 56.9644 2.5899 56.4476 1.66999 55.5277C0.750086 54.6078 0.233289 53.3601 0.233289 52.0591V18.7288C0.180119 18.3676 0.212319 17.9991 0.327308 17.6527C0.442296 17.3063 0.636871 16.9916 0.895426 16.734C1.15398 16.4764 1.46932 16.2829 1.81614 16.1691C2.16297 16.0554 2.53163 16.0245 2.89254 16.079C4.93067 16.079 6.55078 17.4464 7.21678 20.8803L7.4246 21.5888C8.19379 20.6947 9.05949 19.8884 10.0059 19.1846C12.5241 17.2158 15.6233 16.1362 18.8197 16.1144C21.216 15.9376 23.618 16.373 25.7997 17.3798C27.9815 18.3866 29.8714 19.9317 31.2917 21.8698C31.3702 21.9739 31.4398 22.0845 31.4996 22.2004C32.4501 20.9721 33.5696 19.8844 34.8248 18.9697C37.3687 17.1055 40.4423 16.1042 43.5961 16.112C46.0172 15.9611 48.4368 16.4294 50.6268 17.4727C52.8167 18.5161 54.7048 20.1 56.113 22.0753C58.6734 26.4314 59.9016 31.4422 59.6461 36.4886V36.4886Z" fill="#7E5BEF"/>
<path d="M71.7615 50.9398C69.8285 49.0374 68.2956 46.7676 67.253 44.264C66.2104 41.7603 65.6792 39.0733 65.6906 36.3613C65.7021 33.6492 66.2559 30.9668 67.3196 28.472C68.3833 25.9772 69.9353 23.7204 71.8843 21.8345C75.8625 18.1137 81.1127 16.0547 86.5597 16.0791C91.8907 16.0163 97.0364 18.0334 100.905 21.7022C102.799 23.5462 104.299 25.7557 105.314 28.1968C106.329 30.6378 106.837 33.2595 106.809 35.903C106.809 38.678 105.519 39.3817 102.026 39.3817H75.7645C76.0289 41.9305 77.2288 44.2908 79.1323 46.0063C81.0626 47.8436 83.6186 48.8793 86.2834 48.904C88.927 48.9043 91.4854 47.9689 93.5054 46.2637C94.1899 45.9373 94.934 45.7542 95.6918 45.7258C96.4496 45.6974 97.2053 45.8242 97.9123 46.0984C98.6955 46.3461 99.3794 46.8367 99.8652 47.499C100.351 48.1614 100.613 48.9612 100.614 49.7826C100.614 51.9364 98.661 53.7172 95.8742 54.957C92.822 56.2503 89.5439 56.9261 86.2291 56.9456C80.8027 56.9327 75.6017 54.7737 71.7615 50.9398ZM79.3188 26.6783C77.3125 28.333 76.0058 30.685 75.6606 33.2626H96.9157C96.6949 30.722 95.5041 28.364 93.5905 26.6783C91.6489 24.9695 89.1509 24.0274 86.5645 24.0285C83.9158 24.0328 81.3534 24.9711 79.3283 26.6783H79.3188Z" fill="#7E5BEF"/>
<path d="M172.263 36.4886V52.0993C172.242 53.3275 171.768 54.5048 170.933 55.4057C170.492 55.8927 169.952 56.2811 169.35 56.5452C168.749 56.8093 168.098 56.9433 167.44 56.9384C166.131 56.9342 164.876 56.414 163.947 55.4907C163.029 54.5802 162.507 53.3449 162.493 52.0521V35.8722C162.646 33.3473 162.144 30.8256 161.038 28.551C160.463 27.5922 159.636 26.8105 158.646 26.2917C157.656 25.773 156.542 25.5373 155.426 25.6107C154.262 25.5817 153.109 25.8428 152.071 26.3705C151.033 26.8983 150.142 27.676 149.48 28.6336C148.24 30.5191 147.549 32.7121 147.484 34.9677V52.1087C147.454 53.3878 146.932 54.6058 146.025 55.5085C145.119 56.4111 143.898 56.9285 142.619 56.9526C141.31 56.9484 140.055 56.4282 139.126 55.5049C138.218 54.5907 137.709 53.3546 137.709 52.0662V35.8722C137.871 33.342 137.354 30.8145 136.212 28.551C135.634 27.5955 134.805 26.8165 133.816 26.2982C132.827 25.7799 131.715 25.5421 130.6 25.6107C129.442 25.582 128.295 25.8436 127.264 26.3716C126.233 26.8995 125.35 27.6772 124.696 28.6336C123.287 30.8094 122.577 33.364 122.66 35.9549V52.0591C122.66 53.3604 122.144 54.6084 121.223 55.5285C120.303 56.4486 119.055 56.9656 117.754 56.9656C116.453 56.9656 115.205 56.4486 114.285 55.5285C113.365 54.6084 112.848 53.3604 112.848 52.0591V18.7288C112.794 18.3676 112.827 17.9991 112.942 17.6527C113.057 17.3063 113.251 16.9916 113.51 16.734C113.768 16.4764 114.084 16.2829 114.431 16.1691C114.777 16.0554 115.146 16.0245 115.507 16.079C117.545 16.079 119.165 17.4464 119.831 20.8803L120.039 21.5888C120.808 20.6957 121.673 19.8902 122.618 19.1869C125.136 17.218 128.235 16.1384 131.432 16.1168C133.828 15.9399 136.23 16.3754 138.412 17.3822C140.593 18.389 142.483 19.9341 143.904 21.8722C143.983 21.9759 144.054 22.0866 144.114 22.2028C145.064 20.9744 146.184 19.8867 147.439 18.972C149.983 17.1083 153.057 16.107 156.21 16.1144C158.632 15.9633 161.051 16.4315 163.241 17.4748C165.431 18.5181 167.319 20.1022 168.727 22.0776C171.289 26.4326 172.518 31.4427 172.263 36.4886V36.4886Z" fill="#7E5BEF"/>
<path d="M220.765 36.5311C220.81 41.8887 218.801 47.06 215.151 50.9822C213.346 52.8939 211.167 54.4135 208.75 55.4464C206.332 56.4792 203.728 57.0032 201.099 56.9856C198.528 57.0234 195.979 56.5066 193.626 55.4707C191.273 54.4347 189.171 52.9038 187.463 50.9822C187.38 50.8571 187.255 50.7744 187.172 50.6516L186.671 52.1844C186.008 55.6206 184.385 56.9856 182.347 56.9856C181.986 57.0405 181.617 57.0099 181.27 56.8964C180.923 56.7828 180.607 56.5894 180.348 56.3317C180.09 56.074 179.895 55.7592 179.78 55.4126C179.665 55.066 179.632 54.6972 179.686 54.3358V7.9619C179.686 6.66064 180.203 5.41268 181.123 4.49255C182.043 3.57243 183.291 3.05551 184.592 3.05551C185.893 3.05551 187.141 3.57243 188.061 4.49255C188.981 5.41268 189.498 6.66064 189.498 7.9619V20.5166C192.715 17.712 196.831 16.1542 201.099 16.1262C203.728 16.1084 206.332 16.6322 208.75 17.6651C211.168 18.698 213.346 20.2177 215.151 22.1296C218.798 26.0337 220.808 31.1887 220.765 36.5311V36.5311ZM210.869 36.5311C210.881 33.6516 209.781 30.8787 207.799 28.7896C206.824 27.7673 205.651 26.9538 204.352 26.3985C203.053 25.8431 201.654 25.5574 200.242 25.5588C198.822 25.5603 197.416 25.8471 196.109 26.4021C194.802 26.9571 193.62 27.769 192.632 28.7896C190.631 30.8783 189.513 33.6595 189.513 36.5524C189.513 39.4453 190.631 42.2264 192.632 44.3152C193.62 45.3359 194.802 46.1479 196.109 46.7029C197.416 47.2579 198.822 47.5446 200.242 47.546C201.655 47.5475 203.053 47.2618 204.352 46.7065C205.651 46.1511 206.824 45.3376 207.799 44.3152C209.789 42.2141 210.889 39.4249 210.869 36.5311V36.5311Z" fill="#7E5BEF"/>
<path d="M229.045 1.83572C230.067 0.840866 231.441 0.290018 232.868 0.302989C234.294 0.297483 235.666 0.847198 236.694 1.83572C237.195 2.32727 237.592 2.91366 237.864 3.56062C238.135 4.20759 238.275 4.90217 238.275 5.60378C238.275 6.30539 238.135 6.99996 237.864 7.64693C237.592 8.2939 237.195 8.8803 236.694 9.37185C235.662 10.3481 234.289 10.8827 232.868 10.8621C231.447 10.8898 230.072 10.354 229.045 9.37185C228.545 8.87997 228.147 8.29348 227.876 7.64655C227.605 6.99963 227.466 6.30521 227.466 5.60378C227.466 4.90235 227.605 4.20794 227.876 3.56102C228.147 2.9141 228.545 2.3276 229.045 1.83572V1.83572ZM227.963 20.8803C227.963 19.5927 228.472 18.3574 229.38 17.4441C229.83 16.9881 230.368 16.6276 230.961 16.3842C231.554 16.1407 232.19 16.0192 232.83 16.027C234.122 16.0226 235.363 16.5296 236.282 17.4372C237.201 18.3448 237.724 19.5792 237.736 20.8709V52.045C237.735 52.6882 237.608 53.325 237.361 53.919C237.114 54.5129 236.753 55.0523 236.297 55.5062C235.841 55.9601 235.301 56.3196 234.706 56.5642C234.111 56.8088 233.474 56.9335 232.83 56.9314C232.19 56.9389 231.554 56.8173 230.961 56.5739C230.368 56.3304 229.831 55.9701 229.38 55.5143C228.927 55.0562 228.568 54.5131 228.325 53.9161C228.082 53.3192 227.959 52.6801 227.963 52.0356V20.8803Z" fill="#7E5BEF"/>
<path d="M250.996 22.0824C252.899 20.1794 255.157 18.6699 257.643 17.64C260.129 16.61 262.793 16.0799 265.484 16.0799C268.175 16.0799 270.839 16.61 273.325 17.64C275.811 18.6699 278.07 20.1794 279.972 22.0824C281.881 23.9689 283.398 26.2156 284.432 28.6924C285.467 31.1692 286 33.8268 286 36.5111C286 39.1954 285.467 41.8529 284.432 44.3297C283.398 46.8065 281.881 49.0533 279.972 50.9398C278.07 52.8427 275.811 54.3523 273.325 55.3822C270.839 56.4121 268.175 56.9422 265.484 56.9422C262.793 56.9422 260.129 56.4121 257.643 55.3822C255.157 54.3523 252.899 52.8427 250.996 50.9398C249.075 49.0602 247.548 46.8157 246.505 44.3379C245.463 41.8602 244.926 39.1992 244.926 36.5111C244.926 33.823 245.463 31.162 246.505 28.6843C247.548 26.2065 249.075 23.962 250.996 22.0824V22.0824ZM257.897 44.2822C258.876 45.3029 260.05 46.1151 261.351 46.67C262.651 47.2249 264.05 47.5109 265.464 47.5109C266.878 47.5109 268.277 47.2249 269.578 46.67C270.878 46.1151 272.053 45.3029 273.031 44.2822C275.006 42.1801 276.106 39.404 276.106 36.5194C276.106 33.6348 275.006 30.8586 273.031 28.7565C272.053 27.7358 270.878 26.9236 269.578 26.3687C268.277 25.8138 266.878 25.5278 265.464 25.5278C264.05 25.5278 262.651 25.8138 261.351 26.3687C260.05 26.9236 258.876 27.7358 257.897 28.7565C255.922 30.8586 254.822 33.6348 254.822 36.5194C254.822 39.404 255.922 42.1801 257.897 44.2822V44.2822Z" fill="#7E5BEF"/>
<path d="M261.638 32.743C262.662 31.748 264.037 31.1972 265.464 31.2102C266.89 31.205 268.262 31.7547 269.29 32.743C269.791 33.2345 270.188 33.8209 270.46 34.4679C270.731 35.1149 270.871 35.8094 270.871 36.511C270.871 37.2126 270.731 37.9072 270.46 38.5542C270.188 39.2012 269.791 39.7875 269.29 40.2791C268.257 41.2551 266.885 41.7898 265.464 41.7693C264.042 41.7971 262.667 41.2614 261.638 40.2791C261.138 39.7872 260.741 39.2007 260.47 38.5538C260.199 37.9069 260.059 37.2125 260.059 36.511C260.059 35.8096 260.199 35.1152 260.47 34.4683C260.741 33.8213 261.138 33.2349 261.638 32.743V32.743Z" fill="#F2711C"/>
</svg>
